<svg width="136px" height="46px" viewBox="0 0 136 46" version="1.1" xmlns="http://www.w3.org/2000/svg" xmlns:xlink="http://www.w3.org/1999/xlink">
    <!-- Generator: Sketch 51.2 (57519) - http://www.bohemiancoding.com/sketch -->
    <desc>Created with Sketch.</desc>
    <defs></defs>
    <g id="Roman" stroke="none" stroke-width="1" fill="none" fill-rule="evenodd">
        <g id="Concept-F" transform="translate(-116.000000, -27.000000)">
            <g id="1" transform="translate(0.000000, -403.000000)">
                <g id="Menu" transform="translate(0.000000, 403.000000)">
                    <g id="Logo/blue-text" transform="translate(116.000000, 26.000000)">
                        <g id="Group-45" transform="translate(0.246575, 0.105263)">
                            <path d="M1.64592524,26.5223335 L20.829039,15.8356902 C22.0929382,15.1318135 23.6948672,15.5846835 24.3717273,16.9275002 C25.0577588,18.2883335 24.5688385,19.9824368 23.292638,20.6934435 L4.01650058,31.4317602 C2.55774658,32.2444268 0.77639401,31.3892868 0.361790806,29.6846802 C0.357350708,29.6666635 0.352910611,29.6486468 0.348470513,29.6302468 C0.294597466,29.4063792 0.26833476,29.1806568 0.267748084,28.9576214 C0.270375832,27.9433419 0.787803729,27.0004087 1.64592524,26.5223335 Z" id="Path" fill="#002240"></path>
                            <path d="M0.267748085,18.7596016 L0.267748085,18.7436399 C0.26838281,18.5145981 0.296349612,18.27837 0.355239842,18.0380168 C0.360917344,18.0142502 0.366886,17.9905602 0.372563501,17.9667935 C0.558101347,17.2199068 1.01950755,16.5872535 1.65575168,16.2300635 L8.14884839,12.5877835 C9.40095589,11.8856702 10.9879632,12.3374668 11.6585635,13.6769868 C12.3381896,15.0344468 11.853855,16.7243335 10.589519,17.4335768 L3.97399211,21.1443968 C2.23928026,22.1175202 0.273126975,20.6996811 0.267748085,18.7596016 Z" id="Path" fill="#EEE3CC"></path>
                            <path d="M25.5491306,46.6214202 L23.3246543,46.6214202 C23.0714937,46.2798464 23.0810281,45.7093589 23.5149341,45.4559335 C23.5209755,45.4524068 23.5270169,45.4488802 23.5330584,45.4454302 L36.8879255,37.7910302 C36.8939669,37.7875802 36.9000084,37.7840535 36.9060498,37.7805268 C37.5777419,37.4029435 38.2300723,38.3571368 37.7313256,38.9803602 C36.0204323,41.1183635 33.9299471,42.9511568 31.4977927,44.3454168 C29.5758816,45.4470093 27.5730458,46.1984674 25.5491306,46.6214202 Z" id="Path" fill="#002240"></path>
                            <path d="M29.1548769,11.4407735 L35.0752011,8.23725684 C36.1526162,7.65436017 37.4759108,7.91863017 38.2645741,8.87918684 C38.2759291,8.89337017 38.2875752,8.90755351 38.2992214,8.92173684 C39.3873364,10.2538202 39.0100737,12.2916202 37.5193656,13.0982302 L31.6720483,16.2619568 C30.3805622,16.9609268 28.7438404,16.5110468 28.0522042,15.1785802 C27.3508144,13.8279435 27.8507257,12.1464902 29.1548769,11.4407735 Z" id="Path" fill="#97B1BB"></path>
                            <path d="M32.0030175,33.1701768 C32.6854096,34.5380635 32.1991097,36.2408302 30.9297513,36.9555935 L15.7454913,45.5039268 C15.1066996,45.8634935 14.3585795,45.9082668 13.6822289,45.6406235 C13.6607563,45.6320368 13.6392837,45.6238335 13.6178111,45.6153235 C11.5536753,44.7912335 11.3847332,41.6969668 13.3367748,40.5981035 L28.4793998,32.0726168 C29.7364569,31.3651368 31.3297968,31.8203835 32.0030175,33.1701768 Z" id="Path" fill="#002240"></path>
                            <path d="M35.6726489,31.4342135 C34.9916399,30.1032035 35.4769207,28.4461302 36.7437315,27.7506868 L38.7691438,26.6391735 C40.7182011,25.5692135 42.9587762,27.4450168 42.397213,29.6867502 C42.3918995,29.7086768 42.386222,29.7302968 42.3808356,29.7523002 C42.1949338,30.4853102 41.7322902,31.1059268 41.0944447,31.4561402 L39.1892062,32.5021802 C37.9346239,33.1906468 36.3444866,32.7476668 35.6726489,31.4342135 Z" id="Path" fill="#002240"></path>
                            <path d="M22.9630518,28.1569435 C22.2677034,26.7968768 22.7632474,25.1038468 24.0566987,24.3932235 L38.6855827,16.3575602 C40.1640623,15.5453535 41.969799,16.4000335 42.3897158,18.1032602 C42.3942287,18.1212768 42.3987416,18.1396002 42.4032545,18.1576168 C42.7037253,19.3891902 42.1564287,20.6768068 41.0881849,21.2636902 L26.5535621,29.2481402 C25.2726304,29.9515568 23.6490104,29.4989168 22.9630518,28.1569435 Z" id="Path" fill="#EEE3CC"></path>
                            <path d="M19.7944235,29.9087002 C20.4793631,31.2627102 19.9912436,32.9483802 18.7170084,33.6558602 L8.09760529,39.5514502 C7.04530218,40.1358035 5.75236034,39.8708435 4.98182145,38.9079102 C4.97039366,38.8937268 4.95896587,38.8794668 4.94790202,38.8652835 C3.88475342,37.5298268 4.25306315,35.4869668 5.70985187,34.6782868 L16.2573399,28.8222568 C17.5192011,28.1219068 19.1186552,28.5725535 19.7944235,29.9087002 Z" id="Path" fill="#F5725B"></path>
                            <path d="M15.3323439,11.9126568 C14.6393975,10.5441568 15.1331946,8.84039351 16.4222786,8.12532351 L26.9503321,2.28585351 C27.5993143,1.92575017 28.35959,1.88128351 29.046786,2.14908017 C29.0673124,2.15690017 29.0878388,2.16479684 29.1080739,2.17300017 C31.2058381,2.99747351 31.3774005,6.09572684 29.3940599,7.19589351 L18.9106257,13.0107535 C17.6340613,13.7186168 16.0159733,13.2631402 15.3323439,11.9126568 Z" id="Path" fill="#002240"></path>
                            <path d="M19.2200496,2.34320017 L5.87697423,9.99338351 L5.85892268,10.0038868 C5.17572997,10.3918202 4.51764929,9.45104351 5.0257857,8.81517017 C6.73711574,6.67387017 8.82818331,4.83816351 11.2623758,3.44260017 C13.6927105,2.04910684 16.2526087,1.21620017 18.8208047,0.900026842 C19.5697254,0.807950175 19.9038974,1.94376684 19.2381739,2.33269684 C19.2321325,2.33622351 19.226091,2.33975017 19.2200496,2.34320017 Z" id="Path" fill="#F5725B"></path>
                            <path d="M135.369863,22.7903 C135.257433,24.1129877 134.652291,26.0731964 132.265624,27.3133672 C130.975955,27.9836292 129.459292,28.2976355 127.992122,28.6013504 C126.707791,28.8673815 125.38347,29.1490432 124.586539,29.5947496 C123.923099,29.9658621 124.009291,31.0026713 124.009291,31.0026713 C124.009291,31.8685489 124.674559,32.5703818 125.49525,32.5703818 L128.344933,32.5703818 C129.165259,32.5703818 129.830526,31.8685489 129.830526,31.0026713 C129.830526,30.1271986 130.503323,29.4173956 131.333445,29.4173956 L133.81979,29.4173956 C134.649912,29.4173956 135.322709,30.1271986 135.322709,31.0026713 C135.322709,35.0687366 132.198512,38.3644882 128.344933,38.3644882 L125.49525,38.3644882 C121.641305,38.3644882 118.517108,35.0687366 118.517108,31.0026713 L118.517108,20.3622038 C118.517108,16.2961384 121.641671,13 125.49525,13 L128.413434,13 C132.080479,13 135.086799,15.9840809 135.369863,19.7761498 L135.369863,22.7903 Z M109.929385,38.3645655 L108.315344,38.3645655 C103.779172,38.3645655 100.101925,34.484985 100.101925,29.6992121 L100.101925,21.6655856 C100.101925,16.8797353 103.779172,13.0001548 108.315344,13.0001548 L109.997958,13.0001548 C113.851903,13.0001548 116.9761,16.2962932 116.9761,20.3623585 C116.9761,21.031073 116.462382,21.573117 115.828478,21.573117 L112.631832,21.573117 C111.998,21.573117 111.484282,21.031073 111.484282,20.3623585 C111.484282,19.4964809 110.81865,18.7942611 109.997958,18.7942611 L108.315344,18.7942611 C106.812425,18.7942611 105.593816,20.079923 105.593816,21.6655856 L105.593816,29.6992121 C105.593816,31.2847973 106.812059,32.5705365 108.315344,32.5705365 L109.929385,32.5705365 C110.750076,32.5705365 111.415343,31.8687037 111.415343,31.0027487 C111.415343,30.1269665 112.08814,29.4171635 112.917897,29.4171635 L115.404607,29.4171635 C116.234364,29.4171635 116.907161,30.1269665 116.907161,31.0027487 C116.907161,35.0685045 113.783037,38.3645655 109.929385,38.3645655 Z M129.846025,21.5790752 L129.846025,21.3894952 C129.846025,19.7627441 128.59598,18.4439637 127.054095,18.4439637 C125.511845,18.4439637 124.261874,19.7627441 124.261874,21.3894952 L124.261874,23.4824584 C124.261874,23.6781514 124.447637,23.813643 124.621191,23.7446978 L125.582977,23.3633712 C126.496367,23.0010026 127.430373,22.7003055 128.379878,22.4628275 L129.369445,22.2150581 C129.648711,22.1450295 129.846025,21.8820163 129.846025,21.5790752 Z M81.1717084,31.0025939 L81.1717084,29.0872943 C81.1717084,27.8130072 81.577887,25.464614 84.2976604,24.0514305 C85.5874016,23.3811685 87.1039917,23.0671621 88.571235,22.7634472 C89.8554932,22.4974162 91.1798868,22.2161414 91.9767454,21.770048 C92.5987338,21.4217625 92.5539927,20.3621264 92.5539927,20.3621264 C92.5539927,19.4962488 91.8887255,18.7944159 91.0680342,18.7944159 L88.2183509,18.7944159 C87.3980252,18.7944159 86.7327579,19.4962488 86.7327579,20.3621264 C86.7327579,21.2375217 86.0599607,21.9474021 85.2298387,21.9474021 L82.7434937,21.9474021 C81.9133718,21.9474021 81.2405745,21.2375217 81.2405745,20.3621264 C81.2405745,16.296061 84.364772,13.0003095 88.2183509,13.0003095 L91.0680342,13.0003095 C94.9219787,13.0003095 98.0461761,16.296061 98.0461761,20.3621264 L98.0461761,31.0025939 C98.0461761,35.0686592 94.9216131,38.3647203 91.0680342,38.3647203 L88.1498503,38.3647203 C84.2958327,38.3647203 81.1717084,35.0686592 81.1717084,31.0025939 Z M86.7172594,29.7857225 L86.7172594,29.9753025 C86.7172594,31.6020536 87.9673039,32.920834 89.5091887,32.920834 C91.0514391,32.920834 92.3014836,31.6020536 92.3014836,29.9753025 L92.3014836,27.8822619 C92.3014836,27.6866463 92.1156474,27.5511546 91.9421662,27.6200225 L90.9803798,28.0014265 C90.0669166,28.3637951 89.1329106,28.6644148 88.1834061,28.9019702 L87.1938393,29.1497396 C86.9145733,29.2197681 86.7172594,29.4827814 86.7172594,29.7857225 Z M79.2468197,13.1436939 C79.8741448,13.2083832 80.3128557,13.8272652 80.1944966,14.4803489 L79.5638817,17.9550021 C79.4643109,18.5026948 79.0057883,18.8863428 78.4773029,18.8863428 C73.3949534,18.8863428 73.4883832,28.1215196 73.4883832,28.1215196 L73.4883832,37.4374033 C73.4883832,37.9493466 73.0951445,38.3645655 72.6095725,38.3645655 L68.875303,38.3645655 C68.389731,38.3645655 67.9965654,37.9493466 67.9965654,37.4374033 L67.9965654,13.927317 C67.9965654,13.415451 68.389731,13.0001548 68.875303,13.0001548 L72.6095725,13.0001548 C73.0951445,13.0001548 73.4883832,13.415451 73.4883832,13.927317 L73.4883832,15.6309835 C74.5143569,14.3011378 75.47183,13.5322942 77.8149598,13.1691518 C78.281378,13.0968792 78.7553992,13.0930103 79.2248147,13.1413725 L79.2468197,13.1436939 Z M65.0583503,20.225474 C65.0583503,20.7374174 64.664746,21.1527137 64.1795396,21.1527137 L61.3638507,21.1527137 L61.3638507,30.9066432 C61.3638507,31.8566324 62.0940364,32.6270236 62.9944866,32.6270236 L64.1669653,32.6270236 C64.6525373,32.6270236 65.045776,33.0418556 65.045776,33.5541859 L65.045776,37.4942773 C65.045776,38.0062206 64.6525373,38.4210526 64.1669653,38.4210526 L62.9944866,38.4210526 C59.0607831,38.4210526 55.8720328,35.0568202 55.8720328,30.9066432 L55.8720328,21.1527137 L54.8788108,21.1527137 C54.3936043,21.1527137 54,20.7374174 54,20.225474 L54,16.2853827 C54,15.7734393 54.3936043,15.3582204 54.8788108,15.3582204 L55.8720328,15.3582204 L55.8720328,13.9270849 C55.8720328,13.4152189 56.2652716,13.0003095 56.7504781,13.0003095 L60.4850399,13.0003095 C60.9706119,13.0003095 61.3638507,13.4152189 61.3638507,13.9270849 L61.3638507,15.3582204 L64.1795396,15.3582204 C64.664746,15.3582204 65.0583503,15.7734393 65.0583503,16.2853827 L65.0583503,20.225474 Z" id="Clip-44" fill="#002240"></path>
                        </g>
                    </g>
                </g>
            </g>
        </g>
    </g>
</svg>