
<svg width="135px" height="42px" viewBox="0 0 135 42" version="1.1" xmlns="http://www.w3.org/2000/svg" xmlns:xlink="http://www.w3.org/1999/xlink">
    <!-- Generator: Sketch 51.2 (57519) - http://www.bohemiancoding.com/sketch -->
    <desc>Created with Sketch.</desc>
    <defs></defs>
    <g id="Roman" stroke="none" stroke-width="1" fill="none" fill-rule="evenodd">
        <g id="Concept-F" transform="translate(-117.000000, -29.000000)">
            <g id="header">
                <g id="header__logo" transform="translate(117.000000, 29.000000)">
                    <g id="bug">
                        <path d="M1.35476134,24.1776673 L20.2119459,14.3041246 C21.4543709,13.6538029 23.0290824,14.072216 23.6944424,15.3128635 C24.3688179,16.5701569 23.8882046,18.1353632 22.6336873,18.7922724 L3.6850596,28.7135568 C2.25109044,29.4643912 0.500003815,28.6743151 0.0924448957,27.0994046 C0.0880802373,27.0827587 0.0837155789,27.0661129 0.0793509205,27.0491129 C0.0263931997,26.8422783 0.000576707723,26.6337302 0,26.4276646 C0.00258310121,25.4905573 0.511219679,24.6193678 1.35476134,24.1776673 Z" id="Path" fill="#002240"></path>
                        <path d="M0,17.35885 L0,17.3432353 C0.000651069595,17.1191723 0.0293380212,16.8880791 0.089744684,16.6529507 C0.0955683823,16.6297006 0.101690732,16.6065256 0.10751443,16.5832755 C0.297829904,15.8526243 0.771117384,15.2337232 1.42374491,14.8842976 L8.08403986,11.3211915 C9.36838932,10.6343403 10.9962623,11.0763161 11.6841307,12.3867183 C12.3812572,13.7146706 11.884451,15.3678235 10.5875582,16.0616496 L3.80168038,19.6918059 C2.02229943,20.643776 0.00551739721,19.2567571 1.11364888e-10,17.35885 Z" id="Path" fill="#EEE3CC"></path>
                        <path d="M24.4329432,42 L22.1708621,42 C21.9134218,41.6938854 21.9231174,41.1826208 22.3643585,40.9555037 C22.3705021,40.9523432 22.3766457,40.9491826 22.3827893,40.9460908 L35.96342,34.0863021 C35.9695636,34.0832102 35.9757071,34.0800496 35.9818507,34.0768891 C36.6648978,33.7385031 37.3282558,34.5936406 36.8210778,35.1521665 C35.0812619,37.0682214 32.955437,38.7107506 30.4821671,39.960271 C28.5277662,40.9475059 26.4910726,41.6209544 24.4329432,42 Z" id="Path" fill="#002240"></path>
                        <path d="M28.3963415,10.2436417 L34.2160676,7.28386607 C35.2751753,6.74531937 36.5759845,6.98948226 37.3512468,7.87695452 C37.3624089,7.89005871 37.3738571,7.9031629 37.3853054,7.91626708 C38.4549312,9.14699823 38.0840789,11.0297512 36.6187009,11.7749899 L30.8707411,14.698003 C29.6012,15.3437915 27.9922893,14.9281408 27.3124054,13.6970555 C26.6229335,12.4491827 27.1143504,10.8956635 28.3963415,10.2436417 Z" id="Path" fill="#97B1BB"></path>
                        <path d="M30.6960558,30.3197121 C31.3668528,31.5835173 30.8888161,33.1567218 29.6410264,33.8170993 L14.7147746,41.7149964 C14.0868371,42.0472039 13.351429,42.0885704 12.6865708,41.8412919 C12.665463,41.8333586 12.6443553,41.8257794 12.6232476,41.8179169 C10.5941852,41.0565313 10.4281137,38.1977051 12.3469865,37.1824534 L27.2323108,29.3056647 C28.4680082,28.6520163 30.0342744,29.0726236 30.6960558,30.3197121 Z" id="Path" fill="#002240"></path>
                        <path d="M35.3033369,28.7158274 C34.6338949,27.4860855 35.1109332,25.9550883 36.3562269,25.3125568 L38.3472371,24.2856114 C40.2631891,23.2970579 42.4657076,25.0301433 41.9136827,27.1013174 C41.9084594,27.1215758 41.9028783,27.1415509 41.8975835,27.1618801 C41.7148393,27.8391201 41.2600538,28.412518 40.6330422,28.7360858 L38.7601646,29.7025393 C37.5268917,30.3386249 35.9637633,29.9293485 35.3033369,28.7158274 Z" id="Path" fill="#002240"></path>
                        <path d="M22.3176543,25.6354324 C21.6165944,24.3285825 22.1162088,22.7017975 23.4202845,22.0189794 L38.1693296,14.2977358 C39.6599534,13.5173092 41.4805224,14.3385472 41.9038883,15.97513 C41.9084383,15.9924417 41.9129882,16.0100481 41.9175382,16.0273598 C42.2204771,17.2107441 41.668685,18.4479788 40.5916667,19.0118986 L25.937657,26.6839327 C24.6462037,27.3598261 23.0092474,26.924897 22.3176543,25.6354324 Z" id="Path" fill="#EEE3CC"></path>
                        <path d="M19.6850849,27.3685761 C20.3801056,28.6791347 19.8848018,30.3107099 18.5918121,30.9954862 L7.8161104,36.701881 C6.74831927,37.2674819 5.43634764,37.0110247 4.65446779,36.0789928 C4.6428718,36.0652647 4.63127581,36.0514623 4.62004912,36.0377341 C3.54125288,34.7451335 3.91498347,32.7678309 5.39321351,31.9851022 L16.0959417,26.3169978 C17.3763752,25.6391227 18.9993705,26.0753077 19.6850849,27.3685761 Z" id="Path" fill="#F5725B"></path>
                        <path d="M14.3186043,10.6167395 C13.615459,9.29215281 14.1165239,7.64306096 15.4245809,6.95093659 L26.1075885,1.29884734 C26.7661225,0.950299239 27.5375881,0.907259448 28.2348984,1.16646288 C28.2557269,1.17403195 28.2765554,1.18167522 28.2970884,1.18961532 C30.4257278,1.98763241 30.5998154,4.98646696 28.5872835,6.05133075 L17.949552,11.6795997 C16.6541989,12.3647487 15.0122955,11.9238876 14.3186043,10.6167395 Z" id="Path" fill="#002240"></path>
                        <path d="M18.6175488,1.41697005 L5.04890358,8.90083157 L5.03054687,8.91110655 C4.33580453,9.29060587 3.66659873,8.37028253 4.18332538,7.74823365 C5.92358612,5.65348742 8.05000399,3.85769065 10.5253474,2.49246811 C12.9967679,1.12927057 15.5999421,0.314472037 18.2115546,0.0051725937 C18.9731361,-0.084902244 19.3129573,1.02622075 18.6359795,1.40669507 C18.6298359,1.41014506 18.6236924,1.41359506 18.6175488,1.41697005 Z" id="Path" fill="#F5725B"></path>
                    </g>
                    <path d="M134.616438,19.8955632 C134.504009,21.2182509 133.898866,23.1784596 131.512199,24.4186303 C130.222531,25.0888923 128.705868,25.4028987 127.238697,25.7066136 C125.954366,25.9726446 124.630046,26.2543063 123.833114,26.7000128 C123.169674,27.0711253 123.255867,28.1079344 123.255867,28.1079344 C123.255867,28.9738121 123.921134,29.6756449 124.741825,29.6756449 L127.591508,29.6756449 C128.411834,29.6756449 129.077101,28.9738121 129.077101,28.1079344 C129.077101,27.2324617 129.749899,26.5226588 130.580021,26.5226588 L133.066366,26.5226588 C133.896488,26.5226588 134.569285,27.2324617 134.569285,28.1079344 C134.569285,32.1739998 131.445087,35.4697513 127.591508,35.4697513 L124.741825,35.4697513 C120.887881,35.4697513 117.763683,32.1739998 117.763683,28.1079344 L117.763683,17.4674669 C117.763683,13.4014016 120.888246,10.1052632 124.741825,10.1052632 L127.660009,10.1052632 C131.327054,10.1052632 134.333374,13.0893441 134.616438,16.8814129 L134.616438,19.8955632 Z M109.17596,35.4698287 L107.561919,35.4698287 C103.025747,35.4698287 99.3485004,31.5902482 99.3485004,26.8044752 L99.3485004,18.7708488 C99.3485004,13.9849985 103.025747,10.1054179 107.561919,10.1054179 L109.244534,10.1054179 C113.098478,10.1054179 116.222676,13.4015563 116.222676,17.4676217 C116.222676,18.1363361 115.708958,18.6783801 115.075053,18.6783801 L111.878407,18.6783801 C111.244576,18.6783801 110.730858,18.1363361 110.730858,17.4676217 C110.730858,16.6017441 110.065225,15.8995243 109.244534,15.8995243 L107.561919,15.8995243 C106.059,15.8995243 104.840391,17.1851862 104.840391,18.7708488 L104.840391,26.8044752 C104.840391,28.3900604 106.058635,29.6757997 107.561919,29.6757997 L109.17596,29.6757997 C109.996651,29.6757997 110.661919,28.9739668 110.661919,28.1080118 C110.661919,27.2322296 111.334716,26.5224266 112.164472,26.5224266 L114.651183,26.5224266 C115.480939,26.5224266 116.153736,27.2322296 116.153736,28.1080118 C116.153736,32.1737676 113.029612,35.4698287 109.17596,35.4698287 Z M129.0926,18.6843384 L129.0926,18.4947584 C129.0926,16.8680072 127.842555,15.5492269 126.300671,15.5492269 C124.75842,15.5492269 123.508449,16.8680072 123.508449,18.4947584 L123.508449,20.5877215 C123.508449,20.7834145 123.694212,20.9189062 123.867766,20.849961 L124.829553,20.4686344 C125.742943,20.1062657 126.676949,19.8055686 127.626453,19.5680907 L128.61602,19.3203212 C128.895286,19.2502927 129.0926,18.9872795 129.0926,18.6843384 Z M80.4182837,28.1078571 L80.4182837,26.1925574 C80.4182837,24.9182703 80.8244623,22.5698771 83.5442357,21.1566937 C84.833977,20.4864317 86.350567,20.1724253 87.8178103,19.8687104 C89.1020686,19.6026794 90.4264622,19.3214045 91.2233208,18.8753112 C91.8453091,18.5270257 91.8005681,17.4673895 91.8005681,17.4673895 C91.8005681,16.6015119 91.1353008,15.899679 90.3146095,15.899679 L87.4649262,15.899679 C86.6446005,15.899679 85.9793333,16.6015119 85.9793333,17.4673895 C85.9793333,18.3427849 85.306536,19.0526652 84.4764141,19.0526652 L81.9900691,19.0526652 C81.1599471,19.0526652 80.4871499,18.3427849 80.4871499,17.4673895 C80.4871499,13.4013242 83.6113473,10.1055727 87.4649262,10.1055727 L90.3146095,10.1055727 C94.168554,10.1055727 97.2927514,13.4013242 97.2927514,17.4673895 L97.2927514,28.1078571 C97.2927514,32.1739224 94.1681885,35.4699834 90.3146095,35.4699834 L87.3964256,35.4699834 C83.5424081,35.4699834 80.4182837,32.1739224 80.4182837,28.1078571 Z M85.9638347,26.8909856 L85.9638347,27.0805656 C85.9638347,28.7073167 87.2138792,30.0260971 88.7557641,30.0260971 C90.2980144,30.0260971 91.5480589,28.7073167 91.5480589,27.0805656 L91.5480589,24.9875251 C91.5480589,24.7919095 91.3622227,24.6564178 91.1887415,24.7252856 L90.2269551,25.1066896 C89.313492,25.4690583 88.379486,25.769678 87.4299814,26.0072333 L86.4404146,26.2550028 C86.1611486,26.3250313 85.9638347,26.5880445 85.9638347,26.8909856 Z M78.493395,10.2489571 C79.1207202,10.3136464 79.559431,10.9325284 79.4410719,11.5856121 L78.810457,15.0602652 C78.7108863,15.607958 78.2523636,15.991606 77.7238782,15.991606 C72.6415287,15.991606 72.7349585,25.2267828 72.7349585,25.2267828 L72.7349585,34.5426664 C72.7349585,35.0546098 72.3417198,35.4698287 71.8561478,35.4698287 L68.1218783,35.4698287 C67.6363063,35.4698287 67.2431407,35.0546098 67.2431407,34.5426664 L67.2431407,11.0325802 C67.2431407,10.5207142 67.6363063,10.1054179 68.1218783,10.1054179 L71.8561478,10.1054179 C72.3417198,10.1054179 72.7349585,10.5207142 72.7349585,11.0325802 L72.7349585,12.7362466 C73.7609323,11.406401 74.7184054,10.6375574 77.0615352,10.2744149 C77.5279533,10.2021424 78.0019745,10.1982734 78.4713901,10.2466357 L78.493395,10.2489571 Z M64.3049257,17.3307372 C64.3049257,17.8426806 63.9113214,18.2579768 63.4261149,18.2579768 L60.610426,18.2579768 L60.610426,28.0119064 C60.610426,28.9618956 61.3406117,29.7322868 62.2410619,29.7322868 L63.4135406,29.7322868 C63.8991126,29.7322868 64.2923514,30.1471188 64.2923514,30.6594491 L64.2923514,34.5995404 C64.2923514,35.1114838 63.8991126,35.5263158 63.4135406,35.5263158 L62.2410619,35.5263158 C58.3073585,35.5263158 55.1186082,32.1620833 55.1186082,28.0119064 L55.1186082,18.2579768 L54.1253861,18.2579768 C53.6401796,18.2579768 53.2465753,17.8426806 53.2465753,17.3307372 L53.2465753,13.3906458 C53.2465753,12.8787024 53.6401796,12.4634836 54.1253861,12.4634836 L55.1186082,12.4634836 L55.1186082,11.032348 C55.1186082,10.520482 55.5118469,10.1055727 55.9970534,10.1055727 L59.7316153,10.1055727 C60.2171873,10.1055727 60.610426,10.520482 60.610426,11.032348 L60.610426,12.4634836 L63.4261149,12.4634836 C63.9113214,12.4634836 64.3049257,12.8787024 64.3049257,13.3906458 L64.3049257,17.3307372 Z" id="Clip-44" fill="#002240"></path>
                </g>
            </g>
        </g>
    </g>
</svg>