
<svg width="26px" height="27px" viewBox="0 0 26 27" version="1.1" xmlns="http://www.w3.org/2000/svg" xmlns:xlink="http://www.w3.org/1999/xlink">
    <!-- Generator: Sketch 51.2 (57519) - http://www.bohemiancoding.com/sketch -->
    <desc>Created with Sketch.</desc>
    <defs></defs>
    <g id="Page-1" stroke="none" stroke-width="1" fill="none" fill-rule="evenodd">
        <g id="list-item__check">
            <path d="M25.6425633,15.054614 L25.1442299,14.3603283 C24.7325633,13.787267 24.7271466,13.0103283 25.1279799,12.4262466 L25.6154799,11.7264507 C26.1788133,10.9109405 25.9188133,9.7813487 25.0521466,9.3074711 L24.3100633,8.899716 C23.6925633,8.5635936 23.3567299,7.8637977 23.4704799,7.1640017 L23.6113133,6.3154303 C23.7738133,5.33461398 23.0533966,4.42543031 22.0729799,4.38685888 L21.2279799,4.34828745 C20.5292299,4.32073643 19.9279799,3.83583847 19.7329799,3.15257316 L19.5000633,2.32604255 C19.2292299,1.36726704 18.1946466,0.87134867 17.2900633,1.26808337 L16.5154799,1.60971602 C15.8708966,1.89073643 15.1288133,1.72543031 14.6575633,1.19094051 L14.0942299,0.55175684 C13.4388133,-0.19212071 12.2958966,-0.18110031 11.6513133,0.56828745 L11.0988133,1.21849153 C10.6383966,1.75298133 9.89631326,1.93481806 9.25172992,1.66481806 L8.47172992,1.33971602 C7.56714659,0.95951194 6.53797992,1.47196092 6.27797992,2.43624663 L6.05589659,3.26277725 C5.87714659,3.95706296 5.28672992,4.44747112 4.58797992,4.48604255 L3.74297992,4.53563439 C2.76256326,4.59073643 2.05839659,5.51094051 2.23714659,6.4862466 L2.38881326,7.3293079 C2.51339659,8.0291038 2.18839659,8.7344099 1.57631326,9.0760426 L0.83964659,9.4948181 C-0.0161867434,9.979716 -0.26535341,11.1148181 0.314229923,11.9193079 L0.812563257,12.6135936 C1.22422992,13.1866548 1.22964659,13.9635936 0.828813257,14.5476752 L0.341313257,15.2474711 C-0.222020077,16.0629813 0.0379799232,17.1925732 0.90464659,17.6664507 L1.64672992,18.0742058 C2.26422992,18.4103283 2.60006326,19.1101242 2.48631326,19.8099201 L2.34006326,20.6529813 C2.17756326,21.6337977 2.89797992,22.5429813 3.87839659,22.5815528 L4.72339659,22.6201242 C5.42214659,22.6476752 6.02339659,23.1325732 6.21839659,23.8158385 L6.45131326,24.6423691 C6.72214659,25.6011446 7.75672992,26.097063 8.66131326,25.7003283 L9.43589659,25.3586956 C10.0804799,25.0776752 10.8225633,25.2429813 11.2938133,25.7719609 L11.8571466,26.4111446 C12.5125633,27.1550221 13.6554799,27.1440017 14.3000633,26.394614 L14.8525633,25.7444099 C15.3129799,25.2099201 16.0550633,25.0280834 16.6996466,25.2980834 L17.4796466,25.6231854 C18.3842299,26.0033895 19.4133966,25.4909405 19.6733966,24.5266548 L19.8954799,23.7001242 C20.0796466,23.0168589 20.6754799,22.5264507 21.3742299,22.4823691 L22.2192299,22.4327772 C23.1996466,22.3776752 23.9038133,21.4574711 23.7250633,20.482165 L23.5733966,19.6391038 C23.4488133,18.9393079 23.7738133,18.2340017 24.3858966,17.8923691 L25.1225633,17.4735936 C25.9729799,16.999716 26.2167299,15.8591038 25.6425633,15.054614 Z M12.9783966,22.1903283 C8.25506326,22.1903283 4.42547992,18.294614 4.42547992,13.489716 C4.42547992,8.6848181 8.25506326,4.78910378 12.9783966,4.78910378 C17.7017299,4.78910378 21.5313133,8.6848181 21.5313133,13.489716 C21.5313133,18.294614 17.7017299,22.1903283 12.9783966,22.1903283 Z" id="Combined-Shape" fill="#F5735B" fill-rule="nonzero"></path>
            <path d="M13.5,14 L10.5,17.5" id="Line" stroke="#F5735B" stroke-width="3" stroke-linecap="round"></path>
            <path d="M13.5,14 L13.5,8.5" id="Line" stroke="#F5735B" stroke-width="3" stroke-linecap="round"></path>
        </g>
    </g>
</svg>