
<svg width="218px" height="69px" viewBox="0 0 218 69" version="1.1" xmlns="http://www.w3.org/2000/svg" xmlns:xlink="http://www.w3.org/1999/xlink">
    <!-- Generator: Sketch 51.2 (57519) - http://www.bohemiancoding.com/sketch -->
    <desc>Created with Sketch.</desc>
    <defs>
        <path d="M0.826034595,42.094327 L0.826034595,42.0713871 C0.830254917,40.5729076 1.66127548,39.1585078 3.03947063,38.441395 L33.848714,22.41143 C35.8786127,21.355615 38.4514077,22.03492 39.5384861,24.049145 C40.6402942,26.090395 39.8550586,28.63155 37.8054033,29.69806 L6.8467583,45.805535 C4.50391096,47.024535 1.64295078,45.741825 0.977072905,43.184915 C0.969941839,43.15789 0.962810773,43.130865 0.955679707,43.103265 C0.869156329,42.7674635 0.826976831,42.4288799 0.826034594,42.0943268 L0.826034595,42.094327 Z M0.826034595,26.7972972 L0.826034595,26.7733546 C0.827054002,26.4297919 0.871970381,26.0754497 0.96655166,25.71492 C0.975670072,25.67927 0.985256095,25.643735 0.994374507,25.608085 C1.29235953,24.487755 2.03340585,23.538775 3.0552525,23.00299 L13.4835593,17.53957 C15.4945199,16.4864 18.0433498,17.164095 19.1203745,19.173375 C20.2118952,21.209565 19.4340245,23.744395 17.4034243,24.80826 L6.77848711,30.37449 C3.99243475,31.834175 0.834673418,29.7074164 0.826034595,26.7972972 Z M41.4294672,68.590025 L37.8568234,68.590025 C37.4502321,68.0776644 37.465545,67.2219331 38.1624242,66.841795 C38.1721271,66.836505 38.18183,66.831215 38.191533,66.82604 L59.6402589,55.34444 C59.6499618,55.339265 59.6596647,55.333975 59.6693677,55.328685 C60.7481459,54.76231 61.7958281,56.1936 60.9948107,57.128435 C58.2470123,60.33544 54.8895663,63.08463 50.9833789,65.17602 C47.8966732,66.8284086 44.6799976,67.9555959 41.4294672,68.590025 Z M47.2205143,15.819055 L56.7289136,11.01378 C58.4593076,10.139435 60.584599,10.53584 61.85124,11.976675 C61.8694768,11.99795 61.8881812,12.019225 61.9068857,12.0405 C63.6544644,14.038625 63.0485576,17.095325 60.6543899,18.30524 L51.263244,23.05083 C49.1890391,24.099285 46.5603646,23.424465 45.449555,21.425765 C44.3230805,19.39981 45.1259683,16.87763 47.2205143,15.819055 Z M51.7948007,48.41316 C52.8907636,50.46499 52.1097366,53.01914 50.0710701,54.091285 L25.6842282,66.913785 C24.65829,67.453135 23.4567639,67.520295 22.3705038,67.11883 C22.3360175,67.10595 22.3015312,67.093645 22.2670449,67.08088 C18.9519177,65.844745 18.6805865,61.203345 21.8156835,59.55505 L46.1356571,46.76682 C48.154567,45.7056 50.7135674,46.38847 51.7948007,48.41316 Z M57.6884511,45.809215 C56.5947093,43.8127 57.3740997,41.32709 59.4086746,40.283925 L62.6616096,38.616655 C65.7919136,37.011715 69.390413,39.82542 68.4885086,43.18802 C68.4799747,43.22091 68.4708563,43.25334 68.4622055,43.286345 C68.1636359,44.38586 67.4206023,45.316785 66.3961838,45.842105 L63.3362552,47.411165 C61.3213199,48.443865 58.7674632,47.779395 57.6884511,45.809215 Z M37.2760678,40.89331 C36.1592961,38.85321 36.9551698,36.313665 39.0325311,35.24773 L62.5274053,23.194235 C64.9019332,21.975925 67.8020558,23.257945 68.4764676,25.812785 C68.4837156,25.83981 68.4909635,25.867295 68.4982115,25.89432 C68.9807859,27.74168 68.1017944,29.673105 66.3861301,30.55343 L43.042645,42.530105 C40.985391,43.58523 38.377759,42.90627 37.2760678,40.89331 Z M32.1870587,43.520945 C33.2871133,45.55196 32.5031637,48.080465 30.4566647,49.141685 L13.4012598,57.98507 C11.7111972,58.8616 9.63465428,58.46416 8.39712213,57.01976 C8.3787684,56.998485 8.36041467,56.977095 8.34264546,56.95582 C6.63516438,54.952635 7.22669213,51.888345 9.5663831,50.675325 L26.5062881,41.89128 C28.5329136,40.840755 31.1017339,41.516725 32.1870587,43.520945 Z M25.0206884,16.52688 C23.9077746,14.47413 24.7008426,11.918485 26.7711897,10.84588 L43.6798817,2.086675 C44.7221863,1.54652 45.9432352,1.47982 47.0469137,1.881515 C47.0798803,1.893245 47.1128469,1.90509 47.1453458,1.917395 C50.5144821,3.154105 50.7900218,7.801485 47.6046566,9.451735 L30.767626,18.174025 C28.7173861,19.23582 26.1186387,18.552605 25.0206884,16.52688 Z M31.2645794,2.172695 L9.83479173,13.64797 L9.80579986,13.663725 C8.70855096,14.245625 7.6516335,12.83446 8.46773137,11.88065 C11.2162311,8.6687 14.5746124,5.91514 18.484073,3.821795 C22.3873378,1.731555 26.4986895,0.482194999 30.623368,0.0079349992 C31.8261801,-0.130180001 32.3628804,1.573545 31.2936882,2.15694 C31.2839853,2.16223 31.2742823,2.16752 31.2645794,2.172695 Z" id="path-1"></path>
        <path d="M130.684932,14.68545 C130.504362,16.6694816 129.532467,19.6097947 125.699335,21.4700507 C123.62805,22.4754438 121.192197,22.9464533 118.835832,23.4020257 C116.773118,23.8010722 114.64618,24.2235648 113.366259,24.8921244 C112.300735,25.4487932 112.439165,27.0040069 112.439165,27.0040069 C112.439165,28.3028233 113.507624,29.3555727 114.825704,29.3555727 L119.402468,29.3555727 C120.719961,29.3555727 121.788421,28.3028233 121.788421,27.0040069 C121.788421,25.6907979 122.868974,24.6260934 124.2022,24.6260934 L128.195421,24.6260934 C129.528647,24.6260934 130.6092,25.6907979 130.6092,27.0040069 C130.6092,33.1031049 125.59155,38.0467322 119.402468,38.0467322 L114.825704,38.0467322 C108.636036,38.0467322 103.618385,33.1031049 103.618385,27.0040069 L103.618385,11.0433057 C103.618385,4.94420763 108.636623,0 114.825704,0 L119.512484,0 C125.401981,0 130.230313,4.47612134 130.684932,10.1642247 L130.684932,14.68545 Z M89.8259815,38.0468483 L87.2337343,38.0468483 C79.9483665,38.0468483 74.0424857,32.2274775 74.0424857,25.0488181 L74.0424857,12.9983784 C74.0424857,5.81960294 79.9483665,0.000232138772 87.2337343,0.000232138772 L89.9361151,0.000232138772 C96.1257834,0.000232138772 101.143434,4.94443977 101.143434,11.0435378 C101.143434,12.0466094 100.318372,12.8596755 99.3002824,12.8596755 L94.1662756,12.8596755 C93.1483037,12.8596755 92.3232416,12.0466094 92.3232416,11.0435378 C92.3232416,9.74472137 91.254195,8.69139169 89.9361151,8.69139169 L87.2337343,8.69139169 C84.819955,8.69139169 82.8627954,10.6198845 82.8627954,12.9983784 L82.8627954,25.0488181 C82.8627954,27.4271959 84.8193679,29.3558048 87.2337343,29.3558048 L89.8259815,29.3558048 C91.1440614,29.3558048 92.212521,28.3030555 92.212521,27.004123 C92.212521,25.6904497 93.2930741,24.6257452 94.6257132,24.6257452 L98.6195211,24.6257452 C99.9521602,24.6257452 101.032713,25.6904497 101.032713,27.004123 C101.032713,33.1027567 96.0151803,38.0468483 89.8259815,38.0468483 Z M121.813312,12.8686128 L121.813312,12.5842428 C121.813312,10.1441161 119.805665,8.16594558 117.329305,8.16594558 C114.852357,8.16594558 112.844827,10.1441161 112.844827,12.5842428 L112.844827,15.7236876 C112.844827,16.0172271 113.143174,16.2204645 113.421913,16.1170467 L114.9666,15.5450568 C116.43356,15.0015039 117.93363,14.5504582 119.458592,14.1942413 L121.047896,13.8225871 C121.496414,13.7175443 121.813312,13.3230245 121.813312,12.8686128 Z M43.6394105,27.0038908 L43.6394105,24.1309414 C43.6394105,22.2195108 44.2917579,18.696921 48.6598788,16.5771458 C50.7312814,15.5717527 53.1670169,15.1007432 55.5234986,14.6451708 C57.5860952,14.2461243 59.7131516,13.8242121 60.9929548,13.1550721 C61.9919058,12.6326438 61.9200489,11.0431896 61.9200489,11.0431896 C61.9200489,9.74437316 60.8515894,8.69162383 59.5335095,8.69162383 L54.9567454,8.69162383 C53.6392526,8.69162383 52.570793,9.74437316 52.570793,11.0431896 C52.570793,12.3562825 51.4902399,13.4211031 50.1570137,13.4211031 L46.1637929,13.4211031 C44.8305668,13.4211031 43.7500136,12.3562825 43.7500136,11.0431896 C43.7500136,4.94409156 48.7676641,0.000464277544 54.9567454,0.000464277544 L59.5335095,0.000464277544 C65.7231779,0.000464277544 70.7408283,4.94409156 70.7408283,11.0431896 L70.7408283,27.0038908 C70.7408283,33.1029889 65.7225908,38.0470804 59.5335095,38.0470804 L54.8467293,38.0470804 C48.6569435,38.0470804 43.6394105,33.1029889 43.6394105,27.0038908 Z M52.5459014,25.1785837 L52.5459014,25.4629537 C52.5459014,27.9030804 54.5535487,29.8812509 57.0299092,29.8812509 C59.5068567,29.8812509 61.5145039,27.9030804 61.5145039,25.4629537 L61.5145039,22.3233929 C61.5145039,22.0299695 61.2160397,21.826732 60.9374184,21.9300337 L59.3927311,22.5021397 C57.925654,23.0456926 56.4255837,23.4966222 54.9006219,23.8529552 L53.3113177,24.2246094 C52.8627995,24.3296522 52.5459014,24.724172 52.5459014,25.1785837 Z M40.5479226,0.21554085 C41.5554447,0.312574856 42.2600409,1.24089781 42.0699491,2.22052342 L41.0571433,7.43250313 C40.8972266,8.25404224 40.1608114,8.82951426 39.3120319,8.82951426 C31.1494706,8.82951426 31.2995245,22.6822794 31.2995245,22.6822794 L31.2995245,36.6561049 C31.2995245,37.42402 30.6679593,38.0468483 29.8881012,38.0468483 L23.8906382,38.0468483 C23.1107801,38.0468483 22.4793322,37.42402 22.4793322,36.6561049 L22.4793322,1.39097552 C22.4793322,0.623176533 23.1107801,0.000232138772 23.8906382,0.000232138772 L29.8881012,0.000232138772 C30.6679593,0.000232138772 31.2995245,0.623176533 31.2995245,1.39097552 L31.2995245,3.94647519 C32.9473005,1.95170672 34.4850604,0.798441306 38.2482688,0.253727678 C38.9973647,0.145318871 39.7586714,0.139515402 40.5125812,0.212058768 L40.5479226,0.21554085 Z M17.7603808,10.8382111 C17.7603808,11.6061261 17.1282285,12.2290705 16.3489575,12.2290705 L11.8267905,12.2290705 L11.8267905,26.8599648 C11.8267905,28.2849487 12.9995129,29.4405355 14.4456905,29.4405355 L16.3287624,29.4405355 C17.1086205,29.4405355 17.7401858,30.0627834 17.7401858,30.8312788 L17.7401858,36.7414159 C17.7401858,37.509331 17.1086205,38.1315789 16.3287624,38.1315789 L14.4456905,38.1315789 C8.12792444,38.1315789 3.00659821,33.0852303 3.00659821,26.8599648 L3.00659821,12.2290705 L1.41142333,12.2290705 C0.632152332,12.2290705 0,11.6061261 0,10.8382111 L0,4.92807399 C0,4.16015893 0.632152332,3.53733061 1.41142333,3.53733061 L3.00659821,3.53733061 L3.00659821,1.39062731 C3.00659821,0.622828325 3.63816348,0.000464277544 4.41743447,0.000464277544 L10.4153672,0.000464277544 C11.1952252,0.000464277544 11.8267905,0.622828325 11.8267905,1.39062731 L11.8267905,3.53733061 L16.3489575,3.53733061 C17.1282285,3.53733061 17.7603808,4.16015893 17.7603808,4.92807399 L17.7603808,10.8382111 Z" id="path-3"></path>
    </defs>
    <g id="Roman" stroke="none" stroke-width="1" fill="none" fill-rule="evenodd">
        <g id="Concept-F" transform="translate(-817.000000, -9254.000000)">
            <g id="9" transform="translate(172.000000, 9032.000000)">
                <g id="1" transform="translate(454.000000, 171.000000)">
                    <g id="logo/blue" transform="translate(191.000000, 51.000000)">
                        <g id="Group-42">
                            <mask id="mask-2" fill="white">
                                <use xlink:href="#path-1"></use>
                            </mask>
                            <g id="Clip-41"></g>
                            <polygon id="Fill-40" fill="#FFFFFF" mask="url(#mask-2)" points="-5.01910123 74.75 74.474746 74.75 74.474746 -5.75 -5.01910123 -5.75"></polygon>
                        </g>
                        <g id="Group-45" transform="translate(87.123288, 18.157895)">
                            <mask id="mask-4" fill="white">
                                <use xlink:href="#path-3"></use>
                            </mask>
                            <g id="Clip-44"></g>
                            <polygon id="Fill-43" fill="#FFFFFF" mask="url(#mask-4)" points="-5.44520548 43.5789474 136.130137 43.5789474 136.130137 -7.26315789 -5.44520548 -7.26315789"></polygon>
                        </g>
                    </g>
                </g>
            </g>
        </g>
    </g>
</svg>