
<svg width="48px" height="48px" viewBox="0 0 48 48" version="1.1" xmlns="http://www.w3.org/2000/svg" xmlns:xlink="http://www.w3.org/1999/xlink">
    <!-- Generator: Sketch 51.2 (57519) - http://www.bohemiancoding.com/sketch -->
    <desc>Created with Sketch.</desc>
    <defs></defs>
    <g id="Roman" stroke="none" stroke-width="1" fill="none" fill-rule="evenodd">
        <g id="Concept-F" transform="translate(-120.000000, -5921.000000)" fill="#F5735B">
            <g id="6" transform="translate(0.000000, 5509.000000)">
                <g id="Group-12" transform="translate(120.000000, 412.000000)">
                    <g id="1">
                        <g id="icon/star/oval-star">
                            <path d="M2.87996367e-10,29.4580389 L2.87996367e-10,29.4419854 C0.00298768286,28.3933341 0.591290137,27.4035226 1.56695263,26.9016797 L23.3776686,15.6837459 C24.8146901,14.9448757 26.6360429,15.4202603 27.4056158,16.8298356 C28.1856162,18.2583233 27.6297262,20.0366496 26.1787185,20.7830042 L4.26223693,32.0551803 C2.60367046,32.908249 0.578317574,32.0105954 0.1069242,30.2212436 C0.101875921,30.2023312 0.0968276422,30.1834189 0.0917793634,30.1641041 C0.0305270695,29.9291068 0.000667035333,29.6921625 0,29.4580388 Z M3.4799541e-10,18.7530207 L3.4799541e-10,18.7362654 C0.000721667009,18.4958368 0.0325192149,18.2478644 0.0994759196,17.995562 C0.105931096,17.9706138 0.112717307,17.945746 0.119172483,17.9207978 C0.330124328,17.1367794 0.854731526,16.4726735 1.57812505,16.0977256 L8.96061205,12.2743683 C10.3842267,11.5373491 12.1886139,12.011607 12.9510695,13.4177218 C13.7237872,14.8426684 13.173111,16.6165684 11.735593,17.3610721 L4.21390587,21.2563769 C2.2415823,22.2778794 0.00611566241,20.7895519 4.71435866e-10,18.7530207 Z M28.7442936,48 L26.2151202,48 C25.927283,47.6414448 25.9381234,47.0425953 26.4314635,46.7765707 C26.4383324,46.7728687 26.4452014,46.7691667 26.4520704,46.7655452 L41.636217,38.7306038 C41.643086,38.7269823 41.649955,38.7232803 41.6568239,38.7195783 C42.4205209,38.3232233 43.1622041,39.3248547 42.5951417,39.9790618 C40.6498992,42.2233568 38.2730703,44.1472681 35.5077721,45.6108443 C33.3226078,46.7672028 31.0454341,47.55602 28.7442936,48 Z M32.8439361,11.0703343 L39.5751952,7.70755357 C40.800189,7.09567797 42.3047416,7.37308626 43.2014317,8.38139736 C43.2143421,8.39628582 43.2275835,8.41117429 43.2408249,8.42606275 C44.4779842,9.8243711 44.049046,11.9634811 42.3541485,12.810192 L35.7058964,16.1312045 C34.2375093,16.8649241 32.3765979,16.3926781 31.5902251,14.9939674 C30.7927625,13.5761833 31.3611491,11.8111359 32.8439361,11.0703343 Z M36.0822001,33.8800231 C36.8580626,35.3159147 36.3051519,37.1033351 34.8619235,37.8536331 L17.5978032,46.8269501 C16.8715131,47.2043927 16.0209196,47.251392 15.251926,46.9704427 C15.2275122,46.9614291 15.2030984,46.9528179 15.1786846,46.9438849 C12.8318143,46.0788249 12.6397314,42.8307256 14.8591534,41.6772319 L32.0759357,32.7278974 C33.5051779,31.9852448 35.3167651,32.4631242 36.0822001,33.8800231 Z M40.2544783,32.0577556 C39.4801882,30.660574 40.0319403,28.9211186 41.4722721,28.1911011 L43.7751148,27.0243284 C45.9911437,25.901175 48.538621,27.8702346 47.9001379,30.2234165 C47.8940965,30.2464333 47.8876413,30.2691281 47.8815172,30.2922254 C47.6701515,31.0616772 47.1441374,31.7131481 46.4189232,32.0807724 L44.2527151,33.1788167 C42.8262867,33.9015107 41.0183408,33.4365078 40.2544783,32.0577556 Z M25.8039872,28.6175549 C25.0133937,27.189872 25.5768147,25.4126724 27.0474362,24.6667202 L43.6801079,16.2315608 C45.3611019,15.378975 47.414179,16.2761457 47.8916137,18.064049 C47.8967448,18.0829613 47.9018758,18.1021956 47.9070069,18.121108 C48.2486346,19.4139095 47.6263722,20.7655405 46.411806,21.3816009 L29.8863068,29.7630009 C28.4299198,30.5013881 26.5839049,30.026245 25.8039872,28.6175549 Z M22.2013369,30.4564008 C22.980096,31.877726 22.4251163,33.6471997 20.9763431,34.3898523 L8.90234995,40.5785438 C7.70590788,41.1919485 6.23586565,40.9138159 5.35978239,39.90301 C5.34678928,39.8881215 5.33379617,39.8731525 5.32121685,39.8582641 C4.11244374,38.4564147 4.53120261,36.3119931 6.18753459,35.4631093 L18.1797622,29.3159446 C19.6144664,28.5807764 21.4330054,29.0538271 22.2013369,30.4564008 Z M17.128065,11.5656775 C16.3402025,10.129142 16.9016373,8.3406754 18.3672933,7.59005543 L30.3374243,1.46027398 C31.0753006,1.08226798 31.9397149,1.03559063 32.7210395,1.31670091 C32.7443774,1.32490969 32.7677154,1.33319894 32.7907223,1.3418101 C35.1758271,2.20727244 35.3708893,5.4595566 33.1158811,6.61441847 L21.1964812,12.7183664 C19.7450596,13.4614214 17.9053344,12.9833006 17.128065,11.5656775 Z M21.5482883,1.52047166 L6.37754849,9.55098673 L6.35702434,9.56201224 C5.58025148,9.96923183 4.83203036,8.98168409 5.40976863,8.31419808 C7.35550768,6.06644255 9.7329987,4.13947303 12.5006141,2.67452874 C15.2638433,1.21175737 18.1743829,0.337442432 21.094357,0.00555042228 C21.9458609,-0.0911038705 22.3258059,1.10118035 21.5688952,1.50944615 C21.5620262,1.51314815 21.5551572,1.51685014 21.5482883,1.52047166 Z" id="Clip-41" opacity="0.149999991"></path>
                            <path d="M20.9336256,36 C20.1509862,36 19.4107877,35.650969 18.9349458,35.0523362 L12.5083824,26.9618798 C11.672512,25.9096438 11.8901117,24.4113477 12.9939354,23.6141992 C14.0995575,22.816708 15.6702315,23.0255094 16.5064616,24.0770596 L20.7332901,29.3975539 L31.3640228,13.126126 C32.0959489,12.0066896 33.641446,11.6641729 34.8182826,12.3608635 C35.9936804,13.0582398 36.3526299,14.5325358 35.6203441,15.6530008 L23.062146,34.8737064 C22.6258677,35.5419397 21.872721,35.9622855 21.0480003,35.9979428 C21.0095158,35.9993143 20.9717505,36 20.9336256,36 Z" id="Shape" fill-rule="nonzero"></path>
                        </g>
                    </g>
                </g>
            </g>
        </g>
    </g>
</svg>