
<svg width="104px" height="79px" viewBox="0 0 104 79" version="1.1" xmlns="http://www.w3.org/2000/svg" xmlns:xlink="http://www.w3.org/1999/xlink">
    <!-- Generator: Sketch 51.2 (57519) - http://www.bohemiancoding.com/sketch -->
    <desc>Created with Sketch.</desc>
    <defs></defs>
    <g id="Page-1" stroke="none" stroke-width="1" fill="none" fill-rule="evenodd">
        <path d="M87.0133912,39.1312393 L83.4602818,38.6862793 C82.3800778,36.0434404 80.8281449,33.5988373 78.8993184,31.4837096 L81.5117234,20.4164584 C81.6191014,19.961556 81.5126412,19.482639 81.2226289,19.1161473 C80.9326166,18.7496557 80.4910209,18.535818 80.0237279,18.5355121 L79.6895101,18.5353591 C75.3475856,18.5353591 71.4393029,21.2638555 69.9020542,25.2658949 C68.814814,24.8337836 67.6971348,24.4778462 66.5572763,24.2081781 C65.735116,24.0137662 64.9111201,24.5223575 64.7167078,25.3446692 C64.5222956,26.166828 65.0310408,26.9908223 65.8532011,27.1852341 C69.7467997,28.1062049 73.220064,30.0751031 75.9577433,32.8074235 C76.0577792,32.9539589 76.1824417,33.0836688 76.3289774,33.1885992 C78.3246474,35.2832303 79.9021246,37.7963593 80.9254275,40.6126546 C81.1213693,41.1522967 81.6033465,41.5368376 82.1729698,41.6081168 L86.6335914,42.1665729 C87.3309363,42.253913 87.8566601,42.8496913 87.8566601,43.5523885 L87.8566601,51.2641612 C87.8566601,51.9668584 87.3307834,52.5626367 86.6335914,52.6499768 L82.5001514,53.1674397 C81.9055956,53.2417781 81.4092402,53.656452 81.2302769,54.2283686 C80.003996,58.1464332 77.6741083,61.6111249 74.4920799,64.2475395 C74.1413425,64.5381631 73.9383645,64.9699685 73.9383645,65.4253298 L73.9383645,73.8800281 C73.9383645,74.6388615 73.3210176,75.2562072 72.5623357,75.2562072 L63.689581,75.2562072 C62.9307461,75.2562072 62.3133992,74.6388615 62.3133992,73.8800281 L62.3133992,70.6577776 C62.3133992,69.8129808 61.628444,69.1281799 60.7837985,69.1281799 L47.9330112,69.1281799 C47.0883657,69.1281799 46.4034105,69.8129808 46.4034105,70.6577776 L46.4034105,73.8800281 C46.4034105,74.6388615 45.7860637,75.2562072 45.0272288,75.2562072 L36.1543211,75.2562072 C35.3956391,75.2562072 34.7782923,74.6388615 34.7782923,73.8800281 L34.7782923,67.9101612 C34.7782923,67.3492578 34.4713014,66.8334774 33.9784641,66.5659508 C27.1133103,62.8386271 22.8483247,55.6753681 22.8483247,47.8716665 C22.8483247,36.1506652 32.3840083,26.6150001 44.1050325,26.6150001 L46.0217752,26.6150001 C46.8664207,26.6150001 47.5513759,25.9301992 47.5513759,25.0854024 C47.5513759,24.2406056 46.8664207,23.5558047 46.0217752,23.5558047 L44.1050325,23.5558047 C32.7505007,23.5558047 23.1897315,31.3792381 20.5274615,41.9186252 L19.4067231,41.9186252 C17.3402326,41.9186252 15.6592014,40.2374443 15.6592014,38.1711108 C15.6592014,36.1047772 17.3402326,34.4235964 19.4067231,34.4235964 C20.2513686,34.4235964 20.9363238,33.7387955 20.9363238,32.8939987 C20.9363238,32.0492019 20.2513686,31.364401 19.4067231,31.364401 C15.6535419,31.364401 12.6,34.4177839 12.6,38.1711108 C12.6,41.9244376 15.6535419,44.9778206 19.4067231,44.9778206 L19.9621211,44.9778206 C19.8489307,45.9270889 19.7891233,46.892418 19.7891233,47.8716665 C19.7891233,56.4907966 24.337238,64.4268084 31.718938,68.800693 L31.718938,73.8801811 C31.718938,76.3258549 33.7086425,78.3155556 36.1541681,78.3155556 L45.0269229,78.3155556 C47.4726014,78.3155556 49.462306,76.3258549 49.462306,73.8801811 L49.462306,72.1875283 L59.2538919,72.1875283 L59.2538919,73.8801811 C59.2538919,76.3258549 61.2435965,78.3155556 63.689275,78.3155556 L72.5620298,78.3155556 C75.0075554,78.3155556 76.99726,76.3258549 76.99726,73.8801811 L76.99726,66.1306273 C80.1029612,63.3992246 82.4466154,59.9538058 83.8336573,56.0836177 L87.0132383,55.6854634 C89.2378895,55.4070766 90.9155556,53.5062455 90.9155556,51.2641612 L90.9155556,43.5523885 C90.9155556,41.3104571 89.2380425,39.409626 87.0133912,39.1312393 Z M76.330507,29.0496608 C75.1894249,28.1163003 73.9672739,27.2893997 72.6817975,26.5793605 C73.5269019,24.1511241 75.5881918,22.3443633 78.0464131,21.7802477 L76.330507,29.0496608 Z M73.4888148,38.8410746 C73.7733206,39.1255797 73.9371408,39.520216 73.9371408,39.9225002 C73.9371408,40.3247843 73.7733206,40.7194206 73.4888148,41.0039257 C73.2044621,41.2884309 72.8098251,41.4520979 72.4075401,41.4520979 C72.0052551,41.4520979 71.6107711,41.2884309 71.3261124,41.0039257 C71.0414537,40.7194206 70.8779394,40.3247843 70.8779394,39.9225002 C70.8779394,39.520216 71.0416067,39.1255797 71.3261124,38.8410746 C71.6106182,38.5565694 72.0052551,38.3929024 72.4075401,38.3929024 C72.8098251,38.3929024 73.2044621,38.5565694 73.4888148,38.8410746 Z M57.4543167,8.9226023 C58.2991151,8.9226023 58.9839174,9.60755616 58.9839174,10.4522 L58.9839174,16.5193493 C58.9839174,17.3641461 58.2989622,18.048947 57.4543167,18.048947 C56.6096712,18.048947 55.924716,17.3641461 55.924716,16.5193493 L55.924716,10.4522 C55.924716,9.6074032 56.6096712,8.9226023 57.4543167,8.9226023 Z M58.5354385,3.82093507 C58.8199442,4.10696984 58.9837644,4.50007645 58.9837644,4.90236065 C58.9837644,5.30464485 58.8199442,5.69928106 58.5354385,5.98378623 C58.2510857,6.2682914 57.8564487,6.43195836 57.4541637,6.43195836 C57.0517258,6.43195836 56.6572418,6.2682914 56.372736,5.98378623 C56.0880773,5.69928106 55.924563,5.30617445 55.924563,4.90236065 C55.924563,4.50007645 56.0882303,4.10544025 56.372736,3.82093507 C56.6572418,3.5364299 57.0517258,3.37276294 57.4541637,3.37276294 C57.8564487,3.37276294 58.2510857,3.5364299 58.5354385,3.82093507 Z M45.0275347,0 C45.8723332,0 46.5571354,0.684800893 46.5571354,1.52959771 L46.5571354,4.12991381 C46.5571354,4.97471062 45.8721802,5.65951152 45.0275347,5.65951152 C44.1828892,5.65951152 43.497934,4.97471062 43.497934,4.12991381 L43.497934,1.52959771 C43.497934,0.684800893 44.1828892,0 45.0275347,0 Z M30.0279644,47.8716665 L30.0281174,47.9337681 C30.033318,48.778565 29.3526457,49.4676487 28.5080002,49.4730023 C28.5046351,49.4730023 28.5014229,49.4730023 28.4983637,49.4730023 C27.6580011,49.4730023 26.9741166,48.7943198 26.968916,47.9528881 L26.968763,47.8716665 C26.968763,47.0268697 27.6537182,46.3420688 28.4983637,46.3420688 C29.3430092,46.3420688 30.0279644,47.0268697 30.0279644,47.8716665 Z M36.7987419,59.9068472 C37.5202545,60.3459947 37.7495417,61.2870032 37.3103933,62.0086674 C37.0223695,62.4819249 36.5183661,62.7433331 36.0021258,62.7433331 C35.7312335,62.7433331 35.4569761,62.6712891 35.208569,62.5201648 C31.9739224,60.5518785 29.4487046,57.5264872 28.0980672,54.0012234 C27.7958181,53.2122569 28.1903021,52.3278435 28.9791172,52.025595 C29.7677793,51.7230405 30.6523474,52.1175238 30.9547495,52.9066432 C32.0643218,55.8026306 34.139837,58.2886857 36.7987419,59.9068472 Z M45.0275347,7.3500229 C48.569937,7.3500229 51.4518576,10.2319379 51.4518576,13.7743333 C51.4518576,17.3167286 48.569937,20.1986436 45.0275347,20.1986436 C41.4851325,20.1986436 38.6032118,17.3167286 38.6032118,13.7743333 C38.6032118,10.2319379 41.4851325,7.3500229 45.0275347,7.3500229 Z M45.0275347,17.1394482 C46.8830933,17.1394482 48.3926563,15.6298882 48.3926563,13.7743333 C48.3926563,11.9187783 46.8830933,10.4092183 45.0275347,10.4092183 C43.1719761,10.4092183 41.6624132,11.9187783 41.6624132,13.7743333 C41.6624132,15.6298882 43.1719761,17.1394482 45.0275347,17.1394482 Z M64.3005035,32.4274714 C65.1453019,32.4274714 65.8301042,33.1122723 65.8301042,33.9570691 C65.8301042,34.8018659 65.145149,35.4866668 64.3005035,35.4866668 L44.4156944,35.4866668 C43.5710489,35.4866668 42.8860938,34.8018659 42.8860938,33.9570691 C42.8860938,33.1122723 43.5710489,32.4274714 44.4156944,32.4274714 L51.9846176,32.4274714 C51.3798134,31.44807 51.0298408,30.2955181 51.0299938,29.0623564 C51.0299938,25.5199611 53.9119144,22.6380461 57.4543167,22.6380461 C60.9967189,22.6380461 63.8786396,25.5199611 63.8786396,29.0623564 C63.8786396,30.2955181 63.528667,31.44807 62.9238628,32.4274714 L64.3005035,32.4274714 Z M57.4543167,32.4274714 C59.3097223,32.4274714 60.8194382,30.9179114 60.8194382,29.0623564 C60.8194382,27.2068015 59.3098753,25.6972415 57.4543167,25.6972415 C55.5987581,25.6972415 54.0891952,27.2068015 54.0891952,29.0623564 C54.0891952,30.9179114 55.5987581,32.4274714 57.4543167,32.4274714 Z" id="Combined-Shape" fill="#F5735B" fill-rule="nonzero"></path>
    </g>
</svg>