
<svg width="103px" height="78px" viewBox="0 0 103 78" version="1.1" xmlns="http://www.w3.org/2000/svg" xmlns:xlink="http://www.w3.org/1999/xlink">
    <!-- Generator: Sketch 51.2 (57519) - http://www.bohemiancoding.com/sketch -->
    <desc>Created with Sketch.</desc>
    <defs></defs>
    <g id="Page-1" stroke="none" stroke-width="1" fill="none" fill-rule="evenodd">
        <path d="M81.3296875,73.3619792 L72.3405156,73.3619792 L72.3405156,65.5871235 C72.3405156,63.4196313 71.8200944,61.3475282 70.8799325,59.509107 C78.4338344,53.4438186 82.759809,44.4446359 82.759809,34.7486979 C82.759809,26.2683633 79.4573724,18.2955788 73.4608728,12.2989362 C67.4643733,6.30243663 59.4915888,3 51.0111111,3 C42.5306335,3 34.557992,6.30243663 28.5614924,12.2989362 C22.5648498,18.2955788 19.2624132,26.2683633 19.2624132,34.7486979 C19.2624132,44.4429197 23.5885308,53.4436756 31.1420037,59.508964 C30.2018418,61.3473852 29.6812776,63.4196313 29.6812776,65.5872665 L29.6812776,73.3619792 L15.8301215,73.3619792 C15.0402654,73.3619792 14.4,74.0022446 14.4,74.7921007 C14.4,75.5819568 15.0402654,76.2222222 15.8301215,76.2222222 L81.3296875,76.2222222 C82.1195436,76.2222222 82.759809,75.5819568 82.759809,74.7921007 C82.759809,74.0022446 82.1195436,73.3619792 81.3296875,73.3619792 Z M76.1360582,49.0374711 L70.53227,49.0374711 C69.7424138,49.0374711 69.1021484,49.6777365 69.1021484,50.4675927 C69.1021484,51.2574488 69.7424138,51.8977142 70.53227,51.8977142 L74.2707507,51.8977142 C72.8555024,53.8093576 71.1927001,55.5608275 69.3017934,57.108076 C68.3752177,55.9828563 67.2625831,55.0066554 65.9976406,54.2293843 C68.366923,49.0756554 69.7416988,42.7299201 69.9170317,36.1789625 L79.8628118,36.1789625 C79.6402849,40.7676504 78.3506013,45.1515449 76.1360582,49.0374711 Z M47.1786714,52.2207786 C48.3784004,52.6453817 49.6676549,52.8789206 51.0109681,52.8789206 C52.3545673,52.8789206 53.6439648,52.6453817 54.8438368,52.2206356 L54.8438368,54.2748622 C54.8438368,56.3881528 53.1245447,58.1074449 51.0112541,58.1074449 C48.8979635,58.1074449 47.1786714,56.3881528 47.1786714,54.2748622 L47.1786714,52.2207786 Z M51.0109681,50.0185345 C46.2370794,50.0185345 42.3531554,46.1346105 42.3531554,41.3607218 L42.3531554,40.7087294 C44.7411723,40.4071168 46.9451326,39.3565495 48.679298,37.691173 C50.7552624,39.6847624 53.5030979,40.8014013 56.4357051,40.8014013 C57.5327513,40.8014013 58.623934,40.6382244 59.6687808,40.3248848 L59.6687808,41.3607218 C59.6687808,46.1347535 55.7848568,50.0185345 51.0109681,50.0185345 Z M39.4929123,36.1788194 L39.4929123,41.3607218 C39.4929123,45.1714236 41.3543585,48.5540901 44.2144586,50.6519353 L44.2144586,51.1398928 L38.8237585,52.9262576 C38.7511083,52.9502836 38.6801743,52.9773129 38.6082391,53.0024831 C36.4148618,48.2181545 35.1391934,42.3101795 34.9670067,36.1788194 L39.4929123,36.1788194 Z M34.9658626,33.3187194 C35.0905692,28.7420445 35.8144967,24.3645855 37.0705725,20.4600677 L49.5809896,20.4600677 L49.5809896,27.2110994 L47.7814677,27.2110994 C43.9659034,27.2110994 40.7462708,29.8033377 39.7862303,33.3187194 L34.9658626,33.3187194 Z M57.8076207,50.6519353 C60.6675777,48.5540901 62.5291669,45.1714236 62.5291669,41.3607218 L62.5291669,36.1788194 L67.0555015,36.1788194 C66.8830289,42.3084633 65.6069314,48.2191556 63.4138401,53.0024831 C63.3417619,52.9773129 63.2706849,52.9504266 63.1981777,52.9262576 L57.8076207,51.1398928 L57.8076207,50.6519353 Z M79.8639559,33.3185764 L69.9171747,33.3185764 C69.7993327,28.7850911 69.1220271,24.4202172 67.9428919,20.4600677 L76.111174,20.4600677 C78.2982589,24.2872159 79.6357086,28.6593835 79.8639559,33.3185764 Z M74.2438644,17.5998247 L66.9767018,17.5998247 C66.2993963,15.8186083 65.5126864,14.1412188 64.6207196,12.5954004 C63.4992183,10.6520082 62.2531534,8.98319944 60.9101263,7.60770855 C66.2762283,9.57097938 70.9013843,13.0833579 74.2438644,17.5998247 Z M52.4412326,5.97794206 C56.0552928,6.56557899 59.4571228,9.3699043 62.1433201,14.0250929 C62.78902,15.14402 63.3746547,16.3401736 63.8997954,17.5999677 L52.4412326,17.5999677 L52.4412326,5.97794206 Z M52.4412326,20.4599247 L64.9517928,20.4599247 C66.2078685,24.3644425 66.931653,28.7419015 67.0565026,33.3184334 L62.5290239,33.3184334 L62.5290239,28.6410779 C62.5290239,27.8512218 61.8887585,27.2109564 61.0989023,27.2109564 L52.4412326,27.2109564 L52.4412326,20.4599247 Z M59.6687808,30.0711994 L59.6687808,37.2885938 C58.6502483,37.714913 57.5479106,37.9413012 56.4357051,37.9413012 C53.8254473,37.9413012 51.4109731,36.7531563 49.8112391,34.6816252 C49.5403741,34.3309594 49.1223496,34.125594 48.679298,34.125594 C48.2362463,34.125594 47.8182218,34.3309594 47.5473568,34.6816252 C46.2448021,36.3684536 44.4019475,37.4692181 42.3531554,37.8200269 L42.3531554,35.4995117 C42.3531554,32.5062674 44.7882233,30.0711994 47.7814677,30.0711994 L59.6687808,30.0711994 Z M49.5809896,5.97794206 L49.5809896,17.5998247 L38.1222839,17.5998247 C38.6474245,16.3400306 39.2332023,15.143877 39.8787591,14.0249499 C42.5650994,9.36976128 45.9670725,6.56557899 49.5809896,5.97794206 Z M41.1120959,7.60770855 C39.7690688,8.98319944 38.5230039,10.6520082 37.4015026,12.5954004 C36.5095358,14.1412188 35.722826,15.8184653 35.0455204,17.5998247 L27.7783579,17.5998247 C31.1208379,13.0833579 35.7461369,9.57097938 41.1120959,7.60770855 Z M25.9110482,20.4600677 L34.0793303,20.4600677 C32.9001951,24.4203602 32.2228895,28.7850911 32.1050475,33.3185764 L22.1582663,33.3185764 C22.3865137,28.6593835 23.7239633,24.2870729 25.9110482,20.4600677 Z M27.7519006,51.8975712 L30.9894097,51.8975712 C31.7792658,51.8975712 32.4195312,51.2573058 32.4195312,50.4674497 C32.4195312,49.6775935 31.7792658,49.0373281 30.9894097,49.0373281 L25.8868791,49.0373281 C23.6723359,45.1511159 22.3822233,40.7670783 22.1596964,36.1788194 L32.1053336,36.1788194 C32.2805234,42.7316363 33.6547272,49.0740822 36.0242956,54.2292413 C34.7594961,55.0065124 33.6468615,55.9825703 32.7202858,57.1076469 C30.8296651,55.5606845 29.1670059,53.8093576 27.7519006,51.8975712 Z M69.4802726,73.3619792 L65.5983507,73.3619792 L65.5983507,65.5086098 C65.5983507,64.7187537 64.9580853,64.0784883 64.1682292,64.0784883 C63.378373,64.0784883 62.7381076,64.7187537 62.7381076,65.5086098 L62.7381076,73.3619792 L39.2841146,73.3619792 L39.2841146,65.5086098 C39.2841146,64.7187537 38.6438492,64.0784883 37.8539931,64.0784883 C37.0641369,64.0784883 36.4238715,64.7187537 36.4238715,65.5086098 L36.4238715,73.3619792 L32.5415206,73.3619792 L32.5415206,65.5871235 C32.5415206,61.0616469 35.4276489,57.0648863 39.7234479,55.6413433 L44.3182854,54.1186929 L44.3182854,54.2748622 C44.3182854,57.9652908 47.3206825,60.9676879 51.0111111,60.9676879 C54.7015397,60.9676879 57.7040799,57.9652908 57.7040799,54.2748622 L57.7040799,54.1188359 L62.2984883,55.6413433 C66.5941443,57.0648863 69.4802726,61.0617899 69.4802726,65.5871235 L69.4802726,73.3619792 Z M87.2031966,73.7810048 C87.4691992,74.0471504 87.6222222,74.4159787 87.6222222,74.7921007 C87.6222222,75.1682227 87.4691992,75.537194 87.2031966,75.8031966 C86.937194,76.0691992 86.5682227,76.2222222 86.1921007,76.2222222 C85.8159787,76.2222222 85.4470074,76.0691992 85.1810048,75.8031966 C84.9150022,75.537194 84.7619792,75.1682227 84.7619792,74.7921007 C84.7619792,74.4159787 84.9150022,74.0470074 85.1810048,73.7810048 C85.4470074,73.5150022 85.8159787,73.3619792 86.1921007,73.3619792 C86.5682227,73.3619792 86.937194,73.5150022 87.2031966,73.7810048 Z" id="Combined-Shape" fill="#F5735B" fill-rule="nonzero"></path>
    </g>
</svg>