
<svg width="103px" height="78px" viewBox="0 0 103 78" version="1.1" xmlns="http://www.w3.org/2000/svg" xmlns:xlink="http://www.w3.org/1999/xlink">
    <!-- Generator: Sketch 51.2 (57519) - http://www.bohemiancoding.com/sketch -->
    <desc>Created with Sketch.</desc>
    <defs></defs>
    <g id="Page-1" stroke="none" stroke-width="1" fill="none" fill-rule="evenodd">
        <path d="M89.0370346,75.0672647 L80.735057,71.6510228 L80.735057,64.8150342 C80.735057,63.9735833 80.053166,63.2916759 79.2120756,63.2916759 C78.3709853,63.2916759 77.6890942,63.9737357 77.6890942,64.8150342 L77.6890942,70.3975322 L73.4245331,68.6427063 L73.4245331,52.4568907 C73.4245331,51.6154398 72.7426421,50.9335323 71.9015517,50.9335323 C71.0604614,50.9335323 70.3785704,51.6155921 70.3785704,52.4568907 L70.3785704,67.3892157 L66.1140092,65.6343898 L66.1140092,49.511203 L77.6892466,49.511203 L77.6892466,52.7125869 C77.6892466,53.5540378 78.3711376,54.2359452 79.212228,54.2359452 C80.0533183,54.2359452 80.7352093,53.5538854 80.7352093,52.7125869 L80.7352093,48.0056733 C80.7352093,48.002778 80.7356664,48.0000352 80.7356664,47.9972923 C80.7356664,47.9940923 80.7361234,47.9910447 80.7361234,47.9878446 C80.7361234,47.9878446 80.7361234,47.9878446 80.7361234,47.9876923 L80.7361234,47.9875399 L80.7342953,36.7102387 L89.4599411,21.3101023 C89.8132265,20.6864046 90,19.9779828 90,19.26118 C90,17.447992 88.8900228,15.9023859 87.1721936,15.3233361 C85.4627434,14.747029 83.6533556,15.2975836 82.5549565,16.7253987 L80.1342129,19.7102484 C80.1410683,19.6518863 80.145334,19.5927623 80.145334,19.5325716 L80.145334,18.8479213 C80.145334,14.3119797 76.4557185,10.621451 71.9208994,10.621451 C71.2805982,10.621451 70.657969,10.6974894 70.0592577,10.8366138 L66.1685483,7.0929039 L70.6599494,2.60054349 C71.0955005,2.16488465 71.2257544,1.50949161 70.9899262,0.940346531 C70.7540979,0.371049069 70.1988046,0 69.5827261,0 L56.0165071,0 C55.1752644,0 54.4935257,0.682059808 54.4935257,1.52335833 L54.4935257,4.5799798 L51.0100315,4.5799798 C50.1687888,4.5799798 49.4870501,5.26203961 49.4870501,6.10333813 L49.4870501,27.0509247 C49.03596,26.8970194 48.5531824,26.8122952 48.0504477,26.8122952 L36.4826752,26.8122952 C37.6327188,25.3969754 38.3235981,23.5943017 38.3235981,21.632694 L38.3235981,19.7974107 C38.3235981,19.7526105 38.3207036,19.7085722 38.316895,19.6646864 C38.3207036,19.6208005 38.3235981,19.5767622 38.3235981,19.5322668 L38.3235981,18.8476165 C38.3235981,14.311675 34.634135,10.6211463 30.0991636,10.6211463 C25.5641921,10.6211463 21.874729,14.3115226 21.874729,18.8476165 L21.874729,19.5322668 C21.874729,19.577067 21.8776235,19.6209529 21.8814321,19.6648387 C21.8797563,19.684496 21.8792993,19.7046103 21.8783852,19.7245723 L19.4459111,16.7250939 C18.347512,15.2974312 16.5381242,14.7471814 14.828674,15.3230313 C13.1105402,15.9022336 12.0005629,17.4478396 12.0005629,19.26118 C12.0005629,19.9779828 12.1873365,20.6864046 12.5406219,21.3101023 L21.2661153,36.7100863 L21.2652013,71.6467561 L12.9444854,75.0671124 C12.1664654,75.3869612 11.7950511,76.2770218 12.1146685,77.0553868 C12.3565905,77.6441891 12.924833,78 13.5240013,78 C13.7168687,78 13.9129352,77.9631237 14.1022986,77.8852567 L51.0095744,62.7133879 L87.878155,77.8849519 C88.6563273,78.2051056 89.5461677,77.8337517 89.8662421,77.0556915 C90.1861642,76.2777837 89.8149022,75.3874184 89.0370346,75.0672647 Z M71.920747,13.6681677 C74.4907876,13.6681677 76.6293905,15.5503846 77.0314259,18.0090608 L75.3457413,18.0090608 C73.6135918,18.0090608 71.982294,17.2474579 70.8697269,15.9197574 C70.5744845,15.5674513 70.1441132,15.3746886 69.7020114,15.3746886 C69.52773,15.3746886 69.3520776,15.4045554 69.1819095,15.4665747 C68.579999,15.685547 68.1793347,16.2577397 68.1793347,16.8983517 C68.1793347,17.4635349 67.7370805,17.9214415 67.1723419,17.9409463 L66.8199706,17.9531368 C67.2447052,15.5217368 69.3702065,13.6681677 71.920747,13.6681677 Z M66.7230799,21.0048821 L67.2773068,20.985682 C68.5067216,20.9433199 69.5880582,20.3708225 70.3068164,19.4905142 C71.7728212,20.5012611 73.5224902,21.0556251 75.3457413,21.0556251 L77.0798712,21.0556251 L77.0798712,21.6325417 C77.0798712,24.488629 74.7569323,26.8121429 71.9015517,26.8121429 C69.0461711,26.8121429 66.7232322,24.488629 66.7232322,21.6325417 L66.7232322,21.0048821 L66.7230799,21.0048821 Z M73.0205172,29.8591643 L71.8911923,33.486607 L70.7624768,29.8591643 L73.0205172,29.8591643 Z M65.9059075,3.04686905 L62.9164643,6.03689978 C62.6273157,6.32611996 62.466593,6.71972149 62.4705539,7.12886595 C62.4745149,7.5380104 62.6428548,7.92841193 62.9376401,8.21199399 L65.8026184,10.9685762 L57.5397932,10.9685762 L57.5397932,3.04686905 L65.9059075,3.04686905 Z M52.5330129,18.2911191 L61.0203929,18.2911191 C61.8616356,18.2911191 62.5433743,17.6090593 62.5433743,16.7677608 L62.5433743,14.0155976 L65.2706337,14.0155976 C64.2817698,15.3734696 63.6963125,17.0431142 63.6963125,18.8477689 L63.6963125,19.5324192 C63.6963125,19.5409525 63.6975312,19.5494859 63.6975312,19.5580193 C63.6851914,19.636191 63.6769648,19.7157342 63.6769648,19.7975631 L63.6769648,21.6328464 C63.6769648,23.5946065 64.3679965,25.3972802 65.5178878,26.8124476 L53.9501153,26.8124476 C53.4546931,26.8124476 52.9786186,26.894886 52.5328605,27.0445247 L52.5328605,18.2911191 L52.5330129,18.2911191 Z M52.5330129,7.62684885 L54.4936781,7.62684885 L54.4936781,12.4920869 C54.4936781,13.3335378 55.1755691,14.0154452 56.0166595,14.0154452 L59.4972592,14.0154452 L59.4972592,15.2439453 L52.5330129,15.2439453 L52.5330129,7.62684885 Z M30.0990112,13.6681677 C32.6493995,13.6681677 34.7749007,15.5217368 35.2000924,17.9528321 L34.8477211,17.9406415 C34.2829825,17.9211367 33.8407283,17.4632301 33.8407283,16.898047 C33.8407283,16.2574349 33.440064,15.6852422 32.8381535,15.46627 C32.2363953,15.2474501 31.5618168,15.4284793 31.1503361,15.9194527 C30.0379213,17.2474579 28.4066235,18.0090608 26.6743217,18.0090608 L24.9883324,18.0090608 C25.3903678,15.5505369 27.529123,13.6681677 30.0990112,13.6681677 Z M24.9206917,21.0557775 L26.6741693,21.0557775 C28.4974204,21.0557775 30.2470894,20.5012611 31.7130942,19.4906666 C32.4318524,20.3709748 33.513189,20.9434723 34.7426038,20.9858344 L35.277483,21.0042725 L35.277483,21.6328464 C35.277483,24.4889338 32.9543918,26.8124476 30.0991636,26.8124476 C27.243783,26.8124476 24.9208441,24.4889338 24.9208441,21.6328464 L24.9208441,21.0557775 L24.9206917,21.0557775 Z M31.2281838,29.8591643 L30.0994682,33.486607 L28.9701434,29.8591643 L31.2281838,29.8591643 Z M35.8865537,65.6362184 L31.6219926,67.3892157 L31.6219926,52.4568907 C31.6219926,51.6154398 30.9401016,50.9335323 30.0990112,50.9335323 C29.2579209,50.9335323 28.5760298,51.6155921 28.5760298,52.4568907 L28.5760298,68.6413349 L24.3114687,70.3943322 L24.3114687,49.511203 L35.8867061,49.511203 L35.8867061,65.6362184 L35.8865537,65.6362184 Z M35.8854873,35.8008256 L35.8871631,46.4641815 L24.3105546,46.4641815 L24.3122304,36.3087133 C24.3122304,36.0452456 24.2439804,35.7865017 24.1141834,35.5573199 L15.190643,19.8074679 C15.0963421,19.6410672 15.0465257,19.4521141 15.0465257,19.2610276 C15.0465257,18.5221295 15.6239088,18.2702428 15.8009324,18.2105092 C15.9779559,18.1507757 16.5900735,18.0018989 17.036898,18.5900917 C17.046648,18.6028917 17.0565503,18.6155394 17.066605,18.6280347 L25.5334187,29.0683041 L28.6454986,39.0643812 C28.8438503,39.7011837 29.4331163,40.1348616 30.0997729,40.1348616 C30.7665819,40.1348616 31.3558479,39.7010313 31.5540472,39.0642288 L34.4185685,29.8591643 L48.0502953,29.8591643 C48.8318192,29.8591643 49.4675501,30.4950525 49.4675501,31.2767698 C49.4675501,31.9755916 48.9462295,32.5787178 48.2548931,32.6795944 L37.1890936,34.2931626 C36.4403236,34.4022678 35.885335,35.0444036 35.8854873,35.8008256 Z M63.0672847,47.9971399 C63.0672847,48.0004923 63.0677418,48.0036923 63.0677418,48.0070447 L63.0677418,64.3808992 L51.5893951,59.6575283 C51.2182855,59.5046896 50.8019298,59.5046896 50.4308202,59.6572236 L38.9325165,64.3839468 L38.9325165,48.0070447 C38.9326688,48.0004923 38.9319071,37.1180117 38.9319071,37.1180117 L48.6941004,35.6944633 C48.9675576,35.6545393 49.2324835,35.5896248 49.4868978,35.5024625 L49.4868978,48.900153 C49.4868978,49.7416039 50.1687888,50.4235113 51.0098791,50.4235113 C51.8511218,50.4235113 52.5328605,49.7414515 52.5328605,48.900153 L52.5328605,35.5088625 C52.7813333,35.5928248 53.0397085,35.6557584 53.3063102,35.6946157 L63.0685035,37.1181641 L63.0668277,47.9875399 L63.0668277,47.9876923 C63.0668277,47.9908923 63.0672847,47.9939399 63.0672847,47.9971399 Z M64.811317,34.2930102 L53.7455175,32.679442 C53.0541811,32.5785654 52.5328605,31.9755916 52.5328605,31.2766174 C52.5328605,30.4949001 53.1685914,29.8590119 53.9501153,29.8590119 L67.5722445,29.8590119 L70.4367657,39.0640764 C70.634965,39.7008789 71.224231,40.1345568 71.89104,40.1347092 C72.5576966,40.1347092 73.1469626,39.7010313 73.3453143,39.0642288 L76.4514529,29.0875041 L84.9338056,18.6280347 C84.9438603,18.6155394 84.9537626,18.6028917 84.9635126,18.5900917 C85.4104895,18.0018989 86.022607,18.1507757 86.1994782,18.2105092 C86.3765017,18.2702428 86.9538849,18.5221295 86.9538849,19.2610276 C86.9538849,19.4522665 86.9040685,19.6412196 86.8097676,19.8074679 L77.8860748,35.5573199 C77.7562779,35.7865017 77.6880278,36.045398 77.6880278,36.3087133 L77.6897036,46.4641815 L66.1130952,46.4641815 L66.1147709,35.8008256 C66.1149233,35.0442512 65.5599347,34.4021154 64.811317,34.2930102 Z" id="Shape" fill="#F5735B" fill-rule="nonzero"></path>
    </g>
</svg>