
<svg width="104px" height="78px" viewBox="0 0 104 78" version="1.1" xmlns="http://www.w3.org/2000/svg" xmlns:xlink="http://www.w3.org/1999/xlink">
    <!-- Generator: Sketch 51.2 (57519) - http://www.bohemiancoding.com/sketch -->
    <desc>Created with Sketch.</desc>
    <defs></defs>
    <g id="Page-1" stroke="none" stroke-width="1" fill="none" fill-rule="evenodd">
        <path d="M103.568396,50.7236422 C103.972032,51.9648822 103.642207,53.30238 102.707736,54.2139978 L98.2270884,58.5838178 L99.2867352,64.7522022 C99.5079668,66.0389422 98.9892657,67.3147622 97.9334611,68.0823978 C96.8776565,68.8502356 95.5037557,68.9501333 94.3482553,68.3426578 L88.8075563,65.4314667 L83.2684751,68.3454889 C82.7657495,68.6097933 82.2215683,68.7404289 81.6802182,68.7404289 C80.9776966,68.7404289 80.2798262,68.5206133 79.6832693,68.0872511 C78.6270603,67.3204244 78.1077524,66.0446044 78.3279729,64.7578644 L79.3843842,58.5888733 L74.9013097,54.2212778 C73.9664343,53.3104689 73.6358002,51.9733756 74.03883,50.7317311 C74.4416576,49.4898844 75.494631,48.6017244 76.7864295,48.4136578 L82.9799033,47.5119489 L85.7483317,41.8986644 C86.3256774,40.7277978 87.4953334,40.0002022 88.800883,40 C88.8010852,40 88.8014896,40 88.8016918,40 C90.1066348,40 91.2762907,40.7267867 91.8540409,41.8970467 L94.6255026,47.5091178 L100.819381,48.4071867 C102.111382,48.5946467 103.164759,49.4822 103.568396,50.7236422 Z M95.162606,55.92318 L98.9556967,52.2237267 L93.7120628,51.4631689 C92.6026692,51.3019978 91.644336,50.6061511 91.1480815,49.6011067 L88.8018941,44.8507044 L86.4581333,49.6025222 C85.9624855,50.6077689 85.0043545,51.3042222 83.8955676,51.4657978 L78.6519336,52.2289844 L82.4472488,55.9264156 C83.2500728,56.7086111 83.6162981,57.8347867 83.4274221,58.9393244 L82.5329912,64.1621178 L87.2221305,61.6952089 C88.2140328,61.1734756 89.3986532,61.1728689 90.3909598,61.6946022 L95.0813125,64.1588822 L94.1842527,58.9368978 C93.9943657,57.83236 94.3599842,56.7055778 95.162606,55.92318 Z M48.5683959,20.7236422 C48.9720324,21.9648822 48.6422072,23.30238 47.7077362,24.2139978 L43.2270884,28.5838178 L44.2867352,34.7522022 C44.5079668,36.0389422 43.9892657,37.3147622 42.9334611,38.0823978 C41.8776565,38.8502356 40.5037557,38.9501333 39.3482553,38.3426578 L33.8075563,35.4314667 L28.2684751,38.3454889 C27.7657495,38.6097933 27.2215683,38.7404289 26.6802182,38.7404289 C25.9776966,38.7404289 25.2798262,38.5206133 24.6832693,38.0872511 C23.6270603,37.3204244 23.1077524,36.0446044 23.3279729,34.7578644 L24.3843842,28.5888733 L19.9013097,24.2212778 C18.9664343,23.3104689 18.6358002,21.9733756 19.03883,20.7317311 C19.4416576,19.4898844 20.494631,18.6017244 21.7864295,18.4136578 L27.9799033,17.5119489 L30.7483317,11.8986644 C31.3256774,10.7277978 32.4953334,10.0002022 33.800883,10 C33.8010852,10 33.8014896,10 33.8016918,10 C35.1066348,10 36.2762907,10.7267867 36.8540409,11.8970467 L39.6255026,17.5091178 L45.8193809,18.4071867 C47.1113815,18.5946467 48.1647594,19.4822 48.5683959,20.7236422 Z M40.162606,25.92318 L43.9556967,22.2237267 L38.7120628,21.4631689 C37.6026692,21.3019978 36.644336,20.6061511 36.1480815,19.6011067 L33.8018941,14.8507044 L31.4581333,19.6025222 C30.9624855,20.6077689 30.0043545,21.3042222 28.8955676,21.4657978 L23.6519336,22.2289844 L27.4472488,25.9264156 C28.2500728,26.7086111 28.6162981,27.8347867 28.4274221,28.9393244 L27.5329912,34.1621178 L32.2221305,31.6952089 C33.2140328,31.1734756 34.3986532,31.1728689 35.3909598,31.6946022 L40.0813125,34.1588822 L39.1842527,28.9368978 C38.9943657,27.83236 39.3599842,26.7055778 40.162606,25.92318 Z M86.5683959,20.7236422 C86.9720324,21.9648822 86.6422072,23.30238 85.7077362,24.2139978 L81.2270884,28.5838178 L82.2867352,34.7522022 C82.5079668,36.0389422 81.9892657,37.3147622 80.9334611,38.0823978 C79.8776565,38.8502356 78.5037557,38.9501333 77.3482553,38.3426578 L71.8075563,35.4314667 L66.2684751,38.3454889 C65.7657495,38.6097933 65.2215683,38.7404289 64.6802182,38.7404289 C63.9776966,38.7404289 63.2798262,38.5206133 62.6832693,38.0872511 C61.6270603,37.3204244 61.1077524,36.0446044 61.3279729,34.7578644 L62.3843842,28.5888733 L57.9013097,24.2212778 C56.9664343,23.3104689 56.6358002,21.9733756 57.03883,20.7317311 C57.4416576,19.4898844 58.494631,18.6017244 59.7864295,18.4136578 L65.9799033,17.5119489 L68.7483317,11.8986644 C69.3256774,10.7277978 70.4953334,10.0002022 71.800883,10 C71.8010852,10 71.8014896,10 71.8016918,10 C73.1066348,10 74.2762907,10.7267867 74.8540409,11.8970467 L77.6255026,17.5091178 L83.8193809,18.4071867 C85.1113815,18.5946467 86.1647594,19.4822 86.5683959,20.7236422 Z M78.162606,25.92318 L81.9556967,22.2237267 L76.7120628,21.4631689 C75.6026692,21.3019978 74.644336,20.6061511 74.1480815,19.6011067 L71.8018941,14.8507044 L69.4581333,19.6025222 C68.9624855,20.6077689 68.0043545,21.3042222 66.8955676,21.4657978 L61.6519336,22.2289844 L65.4472488,25.9264156 C66.2500728,26.7086111 66.6162981,27.8347867 66.4274221,28.9393244 L65.5329912,34.1621178 L70.2221305,31.6952089 C71.2140328,31.1734756 72.3986532,31.1728689 73.3909598,31.6946022 L78.0813125,34.1588822 L77.1842527,28.9368978 C76.9943657,27.83236 77.3599842,26.7055778 78.162606,25.92318 Z M66.7333337,50.7236422 C67.1369702,51.9650844 66.807145,53.30238 65.872674,54.2137956 L61.3920262,58.5836156 L62.4516731,64.752 C62.6729047,66.03874 62.1542035,67.31456 61.0983989,68.0821956 C60.0425943,68.8500333 58.6686935,68.9499311 57.5131931,68.3424556 L51.9724941,65.4314667 L46.4332106,68.3452867 C45.9304851,68.6095911 45.3863039,68.7402267 44.8449538,68.7402267 C44.1424322,68.7402267 43.4445618,68.5204111 42.8480049,68.0870489 C41.7917958,67.3202222 41.272488,66.0444022 41.4927085,64.7576622 L42.5491198,58.5886711 L38.0662475,54.2212778 C37.1313721,53.3104689 36.800738,51.9733756 37.2037678,50.7317311 C37.6065954,49.4898844 38.6595689,48.6017244 39.9513673,48.4136578 L46.1448411,47.5119489 L48.9132695,41.8986644 C49.4906152,40.7277978 50.6602712,40.0002022 51.9656185,40 C51.966023,40 51.9664274,40 51.9666297,40 C53.2717748,40 54.4412285,40.7267867 55.0191809,41.8970467 L57.7906427,47.5091178 L63.9845209,48.4071867 C65.2765216,48.5944444 66.3296973,49.4822 66.7333337,50.7236422 Z M58.3277461,55.92318 L62.1208368,52.2237267 L56.8772028,51.4631689 C55.767607,51.3019978 54.8092738,50.6059489 54.3132216,49.6011067 L51.9670341,44.8505022 L49.6232733,49.6025222 C49.1274233,50.6077689 48.1692923,51.3042222 47.0605054,51.4657978 L41.8170737,52.2289844 L45.6121866,55.9264156 C46.4150106,56.7084089 46.7812359,57.8345844 46.5923599,58.9393244 L45.697929,64.1621178 L50.3872706,61.6952089 C51.3787683,61.1732733 52.563591,61.1730711 53.5560999,61.6946022 L58.2464526,64.1588822 L57.3493928,58.9368978 C57.1597079,57.8319556 57.5253265,56.7053756 58.3277461,55.92318 Z M29.8984738,50.7236422 C30.3021102,51.9650844 29.972285,53.30238 29.0380163,54.2137956 L24.5573685,58.5836156 L25.6170153,64.752 C25.8380447,66.0385378 25.3195458,67.3147622 24.2637412,68.0826 C23.2079366,68.8500333 21.834238,68.9497289 20.6785354,68.3426578 L15.1378364,65.4316689 L9.59855291,68.3454889 C9.09582734,68.6097933 8.55164613,68.7404289 8.01029603,68.7404289 C7.30757224,68.7406311 6.60990402,68.5206133 6.01314491,68.0874533 C4.95693588,67.3204244 4.43762806,66.0446044 4.65784855,64.7578644 L5.71425979,58.5888733 L1.23118535,54.2212778 C0.296107706,53.3102667 -0.0341219201,51.9731733 0.368907868,50.7315289 C0.771937656,49.4898844 1.82470889,48.6017244 3.11650733,48.4136578 L9.30998115,47.5119489 L12.0784095,41.8986644 C12.6557553,40.7277978 13.8254112,40.0002022 15.1307586,40 C15.131163,40 15.1315675,40 15.1317697,40 C16.4369148,40 17.6063686,40.7267867 18.184321,41.8970467 L20.9555805,47.5091178 L27.1494587,48.4071867 C28.4414594,48.5946467 29.4948373,49.4822 29.8984738,50.7236422 Z M21.4928861,55.9229778 L25.2859768,52.2237267 L20.0421407,51.4631689 C18.9325448,51.3019978 17.9742116,50.6059489 17.4781594,49.6011067 L15.1319719,44.8505022 L12.7882111,49.6025222 C12.2925634,50.6077689 11.3344323,51.3042222 10.2256454,51.4657978 L4.98221372,52.2289844 L8.77712441,55.9266178 C9.58015064,56.7090156 9.9463759,57.8353933 9.75709548,58.9399311 L8.86286682,64.16232 L13.5524106,61.6952089 C14.5441106,61.1732733 15.7289333,61.1730711 16.7212399,61.6946022 L21.4113904,64.1588822 L20.5143306,58.9368978 C20.3244435,57.8319556 20.6902643,56.7051733 21.4928861,55.9229778 Z" id="Combined-Shape" fill="#F5735B" fill-rule="nonzero"></path>
    </g>
</svg>