
<svg width="43px" height="46px" viewBox="0 0 43 46" version="1.1" xmlns="http://www.w3.org/2000/svg" xmlns:xlink="http://www.w3.org/1999/xlink">
    <!-- Generator: Sketch 51.2 (57519) - http://www.bohemiancoding.com/sketch -->
    <desc>Created with Sketch.</desc>
    <defs></defs>
    <g id="Roman" stroke="none" stroke-width="1" fill="none" fill-rule="evenodd">
        <g id="Concept-F" transform="translate(-116.000000, -27.000000)">
            <g id="header">
                <g id="header__logo" transform="translate(116.000000, 27.000000)">
                    <g id="bug">
                        <path d="M1.89250058,25.6275967 L21.0756143,14.9409533 C22.3395136,14.2370767 23.9414425,14.6899467 24.6183026,16.0327633 C25.3043341,17.3935967 24.8154139,19.0877 23.5392134,19.7987067 L4.26307592,30.5370233 C2.80432192,31.34969 1.02296935,30.49455 0.608366148,28.7899433 C0.603926051,28.7719267 0.599485953,28.75391 0.595045856,28.73551 C0.541172809,28.5116423 0.514910102,28.2859199 0.514323427,28.0628845 C0.516951174,27.0486051 1.03437907,26.1056719 1.89250058,25.6275967 Z" id="Path" fill="#002240"></path>
                        <path d="M0.514323427,17.8648648 L0.514323427,17.8489031 C0.514958152,17.6198613 0.542924955,17.3836331 0.601815185,17.14328 C0.607492686,17.1195133 0.613461342,17.0958233 0.619138844,17.0720567 C0.804676689,16.32517 1.26608289,15.6925167 1.90232703,15.3353267 L8.39542373,11.6930467 C9.64753123,10.9909333 11.2345385,11.44273 11.9051388,12.78225 C12.5847649,14.13971 12.1004303,15.8295967 10.8360944,16.53884 L4.22056745,20.24966 C2.4858556,21.2227833 0.519702317,19.8049442 0.514323427,17.8648648 Z" id="Path" fill="#EEE3CC"></path>
                        <path d="M25.795706,45.7266833 L23.5712297,45.7266833 C23.318069,45.3851096 23.3276035,44.8146221 23.7615094,44.5611967 C23.7675508,44.55767 23.7735923,44.5541433 23.7796337,44.5506933 L37.1345008,36.8962933 C37.1405423,36.8928433 37.1465837,36.8893167 37.1526251,36.88579 C37.8243173,36.5082067 38.4766477,37.4624 37.977901,38.0856233 C36.2670077,40.2236267 34.1765224,42.05642 31.744368,43.45068 C29.8224569,44.5522724 27.8196211,45.3037306 25.795706,45.7266833 Z" id="Path" fill="#002240"></path>
                        <path d="M29.4014523,10.5460367 L35.3217764,7.34252 C36.3991915,6.75962333 37.7224862,7.02389333 38.5111494,7.98445 C38.5225044,7.99863333 38.5341506,8.01281667 38.5457967,8.027 C39.6339118,9.35908333 39.2566491,11.3968833 37.7659409,12.2034933 L31.9186236,15.36722 C30.6271376,16.06619 28.9904157,15.61631 28.2987795,14.2838433 C27.5973897,12.9332067 28.097301,11.2517533 29.4014523,10.5460367 Z" id="Path" fill="#97B1BB"></path>
                        <path d="M32.2495929,32.27544 C32.9319849,33.6433267 32.445685,35.3460933 31.1763267,36.0608567 L15.9920666,44.60919 C15.3532749,44.9687567 14.6051549,45.01353 13.9288043,44.7458867 C13.9073317,44.7373 13.8858591,44.7290967 13.8643865,44.7205867 C11.8002506,43.8964967 11.6313086,40.80223 13.5833501,39.7033667 L28.7259752,31.17788 C29.9830323,30.4704 31.5763722,30.9256467 32.2495929,32.27544 Z" id="Path" fill="#002240"></path>
                        <path d="M35.9192243,30.5394767 C35.2382152,29.2084667 35.7234961,27.5513933 36.9903068,26.85595 L39.0157192,25.7444367 C40.9647764,24.6744767 43.2053515,26.55028 42.6437884,28.7920133 C42.6384748,28.81394 42.6327973,28.83556 42.627411,28.8575633 C42.4415092,29.5905733 41.9788656,30.21119 41.3410201,30.5614033 L39.4357815,31.6074433 C38.1811992,32.29591 36.591062,31.85293 35.9192243,30.5394767 Z" id="Path" fill="#002240"></path>
                        <path d="M23.2096271,27.2622067 C22.5142787,25.90214 23.0098227,24.20911 24.3032741,23.4984867 L38.932158,15.4628233 C40.4106377,14.6506167 42.2163744,15.5052967 42.6362912,17.2085233 C42.640804,17.22654 42.6453169,17.2448633 42.6498298,17.26288 C42.9503007,18.4944533 42.4030041,19.78207 41.3347603,20.3689533 L26.8001375,28.3534033 C25.5192057,29.05682 23.8955858,28.60418 23.2096271,27.2622067 Z" id="Path" fill="#EEE3CC"></path>
                        <path d="M20.0409988,29.0139633 C20.7259385,30.3679733 20.2378189,32.0536433 18.9635837,32.7611233 L8.34418064,38.6567133 C7.29187752,39.2410667 5.99893569,38.9761067 5.2283968,38.0131733 C5.216969,37.99899 5.20554121,37.98473 5.19447736,37.9705467 C4.13132877,36.63509 4.4996385,34.59223 5.95642721,33.78355 L16.5039153,27.92752 C17.7657764,27.22717 19.3652306,27.6778167 20.0409988,29.0139633 Z" id="Path" fill="#F5725B"></path>
                        <path d="M15.5789192,11.01792 C14.8859728,9.64942 15.3797699,7.94565667 16.668854,7.23058667 L27.1969075,1.39111667 C27.8458896,1.03101333 28.6061653,0.986546666 29.2933614,1.25434333 C29.3138877,1.26216333 29.3344141,1.27006 29.3546493,1.27826333 C31.4524134,2.10273667 31.6239759,5.20099 29.6406352,6.30115667 L19.1572011,12.1160167 C17.8806366,12.82388 16.2625486,12.3684033 15.5789192,11.01792 Z" id="Path" fill="#002240"></path>
                        <path d="M19.4666249,1.44846333 L6.12354957,9.09864667 L6.10549803,9.10915 C5.42230532,9.49708333 4.76422463,8.55630667 5.27236104,7.92043333 C6.98369108,5.77913333 9.07475865,3.94342667 11.5089511,2.54786333 C13.9392858,1.15437 16.499184,0.321463333 19.0673801,0.00528999947 C19.8163008,-0.0867866672 20.1504727,1.04903 19.4847492,1.43796 C19.4787078,1.44148667 19.4726664,1.44501333 19.4666249,1.44846333 Z" id="Path" fill="#F5725B"></path>
                    </g>
                </g>
            </g>
        </g>
    </g>
</svg>